<!-- <!DOCTYPE svg PUBLIC "-//W3C//DTD SVG 1.1//EN"
  "http://www.w3.org/Graphics/SVG/1.1/DTD/svg11.dtd"> -->

<!-- <?xml version="1.0" encoding="utf-8"?> -->
<!-- Generator: Adobe Illustrator 23.0.1, SVG Export Plug-In . SVG Version: 6.00 Build 0)  -->
<svg version="1.1" id="Layer_1" xmlns="http://www.w3.org/2000/svg" xmlns:xlink="http://www.w3.org/1999/xlink" x="0px" y="0px"
  viewBox="0 0 954.7 536.9" style="enable-background:new 0 0 954.7 536.9;" xml:space="preserve">
  <style type="text/css">
    #search {
      fill: #50C5FF;
    }

    .st0 {
      fill: url(#SVGID_1_);
    }

    .st1 {
      fill: #50C5FF;
    }

    .st2 {
      fill: #D7F4FF;
    }

    .st3 {
      fill: #FF6680;
    }

    .st4 {
      enable-background: new;
    }

    .st5 {
      fill: #FF76A7;
    }

    .st6 {
      fill: url(#SVGID_2_);
    }

    .st7 {
      fill: #A943FF;
    }

    .st8 {
      fill: url(#SVGID_3_);
    }

    .st9 {
      fill: url(#SVGID_4_);
    }

    .st10 {
      fill: url(#SVGID_5_);
    }

    .st11 {
      fill: url(#SVGID_6_);
    }

    .st12 {
      fill: url(#SVGID_7_);
    }

    .st13 {
      fill: url(#SVGID_8_);
    }

    .st14 {
      fill: url(#SVGID_9_);
    }

    .st15 {
      fill: #EE4BF7;
    }

    .st16 {
      fill: #E3F1FF;
    }

    .st17 {
      fill: url(#SVGID_10_);
    }

    .st18 {
      fill: url(#SVGID_11_);
    }

    .st19 {
      fill: url(#SVGID_12_);
    }

    .st20 {
      fill: url(#SVGID_13_);
    }

    .st21 {
      fill: url(#SVGID_14_);
    }

    .st22 {
      fill: url(#SVGID_15_);
    }

    .st23 {
      opacity: 0.6;
      fill: url(#SVGID_16_);
      enable-background: new;
    }

    .st24 {
      fill: url(#SVGID_17_);
    }

    .st25 {
      opacity: 0.6;
      fill: url(#SVGID_18_);
      enable-background: new;
    }

    .st26 {
      fill: url(#SVGID_19_);
    }

    .st27 {
      opacity: 0.6;
      fill: url(#SVGID_20_);
      enable-background: new;
    }

    .st28 {
      fill: url(#SVGID_21_);
    }

    .st29 {
      opacity: 0.6;
      fill: url(#SVGID_22_);
      enable-background: new;
    }

    .st30 {
      fill: url(#SVGID_23_);
    }

    .st31 {
      opacity: 0.7;
      fill: url(#SVGID_24_);
      enable-background: new;
    }

    .st32 {
      fill: url(#SVGID_25_);
    }

    .st33 {
      opacity: 0.8;
    }

    .st34 {
      fill: #1CF2EC;
    }

    .st35 {
      opacity: 0.7;
      fill: url(#SVGID_26_);
      enable-background: new;
    }

    .st36 {
      fill: url(#SVGID_27_);
    }

    .st37 {
      opacity: 0.7;
    }

    .st38 {
      opacity: 0.6;
    }

    .st39 {
      fill: #FFFFFF;
    }
  </style>



  <linearGradient id="SVGID_1_" gradientUnits="userSpaceOnUse" x1="384.7162" y1="1110.7147" x2="791.5632" y2="1460.9117"
    gradientTransform="matrix(1 0 0 1 0 -922)">
    <stop offset="0" style="stop-color:#14308C" />
    <stop offset="1" style="stop-color:#01113F" />
  </linearGradient>
  <path class="st0" d="M0,0h954.7v536.9H0V0z" />
  <path class="st1" d="M776.7,408.1L678,350.6l0.4-0.7l98.7,57.5L776.7,408.1z M819.8,400.1l-111.3-64.8l0.4-0.7l111.3,64.8
	L819.8,400.1L819.8,400.1z M876.9,288.6l-95-55.4l0.4-0.7l95,55.4L876.9,288.6L876.9,288.6z M569.9,240.9l-24.5-14.3l0.4-0.7
	l24.5,14.2L569.9,240.9z M535.9,138.5l-20.6-12l0.4-0.7l20.6,12L535.9,138.5z M542.2,252.8l-74.4-43.4l0.4-0.7l74.4,43.4
	L542.2,252.8z M555.6,270.8l-74.5-43.4l0.4-0.7l74.5,43.4L555.6,270.8L555.6,270.8z M773.3,362.1l-64.8-37.8l0.4-0.8l64.9,37.8
	L773.3,362.1L773.3,362.1z M773.8,362.8l-0.5-0.7l7.3-4.5l0.5,0.7L773.8,362.8z" />
  <path class="st1" d="M761,417.4l-0.4-0.6l15.7-9.5l0.5,0.7L761,417.4z M472.1,233.4l-0.4-0.7l9.9-6l0.4,0.7L472.1,233.4z" />
  <path class="st1" d="M779.8,407.7c0,2-1.6,3.6-3.6,3.6s-3.6-1.6-3.6-3.6s1.6-3.6,3.6-3.6S779.8,405.7,779.8,407.7z" />
  <path class="st2" d="M778.5,406.9c0,0.5-0.4,0.8-0.8,0.8c-0.5,0-0.8-0.4-0.8-0.8c0-0.5,0.4-0.8,0.8-0.8S778.5,406.4,778.5,406.9z" />
  <path class="st1" d="M777.4,361.8c0,2-1.6,3.6-3.6,3.6s-3.6-1.6-3.6-3.6s1.6-3.6,3.6-3.6S777.4,359.8,777.4,361.8z" />
  <path class="st2" d="M776,361.1c0,0.5-0.4,0.8-0.8,0.8s-0.8-0.4-0.8-0.8c0-0.5,0.4-0.8,0.8-0.8S776,360.6,776,361.1z" />
  <path class="st1" d="M764.8,416.9c0,2-1.6,3.6-3.6,3.6s-3.6-1.6-3.6-3.6s1.6-3.6,3.6-3.6C763.2,413.2,764.8,414.9,764.8,416.9z" />
  <path class="st2" d="M763.5,416.1c0,0.5-0.4,0.8-0.8,0.8s-0.8-0.4-0.8-0.8c0-0.5,0.4-0.8,0.8-0.8S763.5,415.7,763.5,416.1z" />
  <path class="st3" d="M800.2,406.7l-1.1-0.7l0.2-0.4l1.1,0.7L800.2,406.7z M798,405.4l-1.1-0.7l0.2-0.4l1.1,0.7L798,405.4z
	 M795.8,404.1l-1.1-0.7l0.2-0.4l1.1,0.7L795.8,404.1z M793.6,402.8l-1.1-0.7l0.2-0.4l1.1,0.7L793.6,402.8z M791.4,401.4l-1.1-0.7
	l0.2-0.4l1.1,0.7L791.4,401.4z M789.2,400.1l-1.1-0.7l0.2-0.4l1.1,0.7L789.2,400.1z M787,398.8l-1.1-0.7l0.2-0.4l1.1,0.7L787,398.8z
	 M784.7,397.4l-1.1-0.7l0.2-0.4l1.1,0.7L784.7,397.4z M782.6,396.1l-1.1-0.7l0.2-0.4l1.1,0.7L782.6,396.1z M780.4,394.8l-1.1-0.7
	l0.2-0.4l1.1,0.7L780.4,394.8z M778.1,393.5l-1.1-0.7l0.2-0.4l1.1,0.7L778.1,393.5z M775.9,392.1l-1.1-0.7l0.2-0.4l1.1,0.7
	L775.9,392.1z M773.7,390.8l-1.1-0.7l0.2-0.4l1.1,0.7L773.7,390.8z M771.5,389.5l-1.1-0.7l0.2-0.4l1.1,0.7L771.5,389.5z
	 M769.3,388.2l-1.1-0.7l0.2-0.4l1.1,0.7L769.3,388.2z M767,386.9l-1.1-0.7l0.2-0.4l1.1,0.7L767,386.9z M764.9,385.5l-1.1-0.7
	l0.2-0.4l1.1,0.7L764.9,385.5z M762.7,384.2l-1.1-0.7l0.2-0.4l1.1,0.7L762.7,384.2z M760.4,382.9l-1.1-0.7l0.2-0.4l1.1,0.7
	L760.4,382.9z M758.3,381.6l-1.1-0.7l0.2-0.4l1.1,0.7L758.3,381.6z M756,380.3l-1.1-0.7l0.2-0.4l1.1,0.7L756,380.3z M753.8,378.9
	l-1.1-0.7l0.2-0.4l1.1,0.7L753.8,378.9z M751.6,377.6l-1.1-0.7l0.2-0.4l1.1,0.7L751.6,377.6z M749.4,376.3l-1.1-0.7l0.2-0.4l1.1,0.7
	L749.4,376.3z M747.2,375l-1.1-0.7l0.2-0.4l1.1,0.7L747.2,375z M745,373.7l-1.1-0.7l0.2-0.4l1.1,0.7L745,373.7z M742.7,372.4
	l-1.1-0.7l0.2-0.4l1.1,0.7L742.7,372.4z M740.6,371l-1.1-0.7l0.2-0.4l1.1,0.7L740.6,371z M738.4,369.7l-1.1-0.7l0.2-0.4l1.1,0.7
	L738.4,369.7z M736.1,368.4l-1.1-0.7l0.2-0.4l1.1,0.7L736.1,368.4z M733.9,367.1l-1.1-0.7l0.2-0.4l1.1,0.7L733.9,367.1z
	 M731.7,365.8l-1.1-0.7l0.2-0.4l1.1,0.7L731.7,365.8z M729.5,364.4l-1.1-0.7l0.2-0.4l1.1,0.7L729.5,364.4z M727.3,363.1l-1.1-0.7
	l0.2-0.4l1.1,0.7L727.3,363.1z" />
  <g class="st4">
    <path class="st5" d="M725.3,354.3l4.3,2.5l-4.3,2.5l-4.2-2.5L725.3,354.3z" />

    <linearGradient id="SVGID_2_" gradientUnits="userSpaceOnUse" x1="725.3" y1="1282.8" x2="729.6" y2="1282.8"
      gradientTransform="matrix(1 0 0 1 0 -922)">
      <stop offset="0" style="stop-color:#FF9CC4" />
      <stop offset="1" style="stop-color:#CE19DD" />
    </linearGradient>
    <path class="st6" d="M729.6,356.8v5.5l-4.3,2.5v-5.4L729.6,356.8z" />
    <path class="st7" d="M725.3,359.3v5.4l-4.2-2.5v-5.5L725.3,359.3z" />
  </g>
  <g class="st4">
    <path class="st5" d="M750,368.9l4.3,2.5L750,374l-4.2-2.5L750,368.9z" />

    <linearGradient id="SVGID_3_" gradientUnits="userSpaceOnUse" x1="749.983" y1="1297.4" x2="754.283" y2="1297.4"
      gradientTransform="matrix(1 0 0 1 0 -922)">
      <stop offset="0" style="stop-color:#FF9CC4" />
      <stop offset="1" style="stop-color:#CE19DD" />
    </linearGradient>
    <path class="st8" d="M754.3,371.4v5.5l-4.3,2.5V374L754.3,371.4z" />
    <path class="st7" d="M750,374v5.4l-4.2-2.5v-5.5L750,374z" />
  </g>
  <g class="st4">
    <path class="st5" d="M774.7,383.6l4.3,2.5l-4.3,2.5l-4.2-2.5L774.7,383.6z" />

    <linearGradient id="SVGID_4_" gradientUnits="userSpaceOnUse" x1="774.665" y1="1312.1" x2="778.973" y2="1312.1"
      gradientTransform="matrix(1 0 0 1 0 -922)">
      <stop offset="0" style="stop-color:#FF9CC4" />
      <stop offset="1" style="stop-color:#CE19DD" />
    </linearGradient>
    <path class="st9" d="M779,386.1v5.5l-4.3,2.5v-5.4L779,386.1z" />
    <path class="st7" d="M774.7,388.7v5.4l-4.2-2.5v-5.5L774.7,388.7z" />
  </g>
  <g class="st4">
    <path class="st5" d="M799.4,398.3l4.3,2.5l-4.3,2.5l-4.3-2.5L799.4,398.3z" />

    <linearGradient id="SVGID_5_" gradientUnits="userSpaceOnUse" x1="799.35" y1="1326.8" x2="803.65" y2="1326.8"
      gradientTransform="matrix(1 0 0 1 0 -922)">
      <stop offset="0" style="stop-color:#FF9CC4" />
      <stop offset="1" style="stop-color:#CE19DD" />
    </linearGradient>
    <path class="st10" d="M803.7,400.8v5.5l-4.3,2.5v-5.4L803.7,400.8z" />
    <path class="st7" d="M799.4,403.4v5.4l-4.3-2.5v-5.5L799.4,403.4z" />
  </g>
  <path class="st3" d="M527.1,187.4l-1.1-0.7l0.2-0.4l1.1,0.7L527.1,187.4z M524.9,186.1l-1.1-0.7l0.2-0.4l1.1,0.7L524.9,186.1z
	 M522.7,184.8l-1.1-0.7l0.2-0.4l1.1,0.7L522.7,184.8z M520.4,183.4l-1.1-0.7l0.2-0.4l1.1,0.7L520.4,183.4z M518.2,182.1l-1.1-0.7
	l0.2-0.4l1.1,0.7L518.2,182.1z M516.1,180.8l-1.1-0.7l0.2-0.4l1.1,0.7L516.1,180.8z M513.8,179.5l-1.1-0.7l0.2-0.4l1.1,0.7
	L513.8,179.5z M511.6,178.1l-1.1-0.7l0.2-0.4l1.1,0.7L511.6,178.1z M509.4,176.8l-1.1-0.7l0.2-0.4l1.1,0.7L509.4,176.8z
	 M507.2,175.5l-1.1-0.7l0.2-0.4l1.1,0.7L507.2,175.5z M505,174.1l-1.1-0.7l0.2-0.4l1.1,0.7L505,174.1z M502.7,172.8l-1.1-0.7
	l0.2-0.4l1.1,0.7L502.7,172.8z M500.6,171.5l-1.1-0.7l0.2-0.4l1.1,0.7L500.6,171.5z M498.4,170.2l-1.1-0.7l0.2-0.4l1.1,0.7
	L498.4,170.2z M496.1,168.8l-1.1-0.7l0.2-0.4l1.1,0.7L496.1,168.8z M493.9,167.5l-1.1-0.7l0.2-0.4l1.1,0.7L493.9,167.5z
	 M491.7,166.2l-1.1-0.7l0.2-0.4l1.1,0.7L491.7,166.2z M489.5,164.9l-1.1-0.7l0.2-0.4l1.1,0.7L489.5,164.9z M487.3,163.6l-1.1-0.7
	l0.2-0.4l1.1,0.7L487.3,163.6z M485.1,162.2l-1.1-0.7l0.2-0.4l1.1,0.7L485.1,162.2z M482.9,160.9l-1.1-0.7l0.2-0.4l1.1,0.7
	L482.9,160.9z M480.7,159.6l-1.1-0.7l0.2-0.4l1.1,0.7L480.7,159.6z M478.4,158.3l-1.1-0.7l0.2-0.4l1.1,0.7L478.4,158.3z M476.3,157
	l-1.1-0.7l0.2-0.4l1.1,0.7L476.3,157z M474.1,155.7L473,155l0.2-0.4l1.1,0.7L474.1,155.7z M471.8,154.3l-1.1-0.7l0.2-0.4l1.1,0.7
	L471.8,154.3z M469.6,153l-1.1-0.7l0.2-0.4l1.1,0.7L469.6,153z M467.4,151.7l-1.1-0.7l0.2-0.4l1.1,0.7L467.4,151.7z M465.2,150.4
	l-1.1-0.7l0.2-0.4l1.1,0.7L465.2,150.4z M463,149.1l-1.1-0.7l0.2-0.4l1.1,0.7L463,149.1z M460.7,147.7l-1.1-0.7l0.2-0.4l1.1,0.7
	L460.7,147.7z M458.6,146.4l-1.1-0.7l0.2-0.4l1.1,0.7L458.6,146.4z M456.4,145.1l-1.1-0.7l0.2-0.4l1.1,0.7L456.4,145.1z
	 M454.1,143.8l-1.1-0.7l0.2-0.4l1.1,0.7L454.1,143.8z" />
  <g class="st4">
    <path class="st5" d="M452.1,134.9l4.3,2.5l-4.3,2.5l-4.2-2.5L452.1,134.9z" />

    <linearGradient id="SVGID_6_" gradientUnits="userSpaceOnUse" x1="452.152" y1="1063.45" x2="456.452" y2="1063.45"
      gradientTransform="matrix(1 0 0 1 0 -922)">
      <stop offset="0" style="stop-color:#FF9CC4" />
      <stop offset="1" style="stop-color:#CE19DD" />
    </linearGradient>
    <path class="st11" d="M456.4,137.5v5.4l-4.3,2.5v-5.5L456.4,137.5z" />
    <path class="st7" d="M452.1,139.9v5.5l-4.2-2.5v-5.4L452.1,139.9z" />
  </g>
  <g class="st4">
    <path class="st5" d="M476.8,149.6l4.3,2.5l-4.3,2.5l-4.2-2.5L476.8,149.6z" />

    <linearGradient id="SVGID_7_" gradientUnits="userSpaceOnUse" x1="476.837" y1="1078.05" x2="481.137" y2="1078.05"
      gradientTransform="matrix(1 0 0 1 0 -922)">
      <stop offset="0" style="stop-color:#FF9CC4" />
      <stop offset="1" style="stop-color:#CE19DD" />
    </linearGradient>
    <path class="st12" d="M481.1,152.1v5.4l-4.3,2.5v-5.5L481.1,152.1z" />
    <path class="st7" d="M476.8,154.6v5.5l-4.2-2.5v-5.4L476.8,154.6z" />
  </g>
  <g class="st4">
    <path class="st5" d="M501.5,164.3l4.3,2.5l-4.3,2.5l-4.3-2.5L501.5,164.3z" />

    <linearGradient id="SVGID_8_" gradientUnits="userSpaceOnUse" x1="501.517" y1="1092.75" x2="505.824" y2="1092.75"
      gradientTransform="matrix(1 0 0 1 0 -922)">
      <stop offset="0" style="stop-color:#FF9CC4" />
      <stop offset="1" style="stop-color:#CE19DD" />
    </linearGradient>
    <path class="st13" d="M505.8,166.8v5.4l-4.3,2.5v-5.5L505.8,166.8z" />
    <path class="st7" d="M501.5,169.3v5.5l-4.3-2.5v-5.4L501.5,169.3z" />
  </g>
  <g class="st4">
    <path class="st5" d="M526.2,179l4.3,2.5l-4.3,2.5l-4.3-2.5L526.2,179z" />

    <linearGradient id="SVGID_9_" gradientUnits="userSpaceOnUse" x1="526.208" y1="1107.45" x2="530.508" y2="1107.45"
      gradientTransform="matrix(1 0 0 1 0 -922)">
      <stop offset="0" style="stop-color:#FF9CC4" />
      <stop offset="1" style="stop-color:#CE19DD" />
    </linearGradient>
    <path class="st14" d="M530.5,181.5v5.4l-4.3,2.5V184L530.5,181.5z" />
    <path class="st7" d="M526.2,184v5.5l-4.3-2.5v-5.4L526.2,184z" />
  </g>
  <path class="st1" d="M843,426.4c-7.8,0-15-1.8-20.5-5s-8.5-7.5-8.5-12.2c0-4.6,3.1-9,8.7-12.2c5.5-3.2,12.8-5,20.5-5
	c7.8,0,15,1.8,20.5,5s8.5,7.5,8.5,12.2c0,4.6-3.1,9-8.7,12.2C858.1,424.6,850.8,426.4,843,426.4z M843.3,392.8
	c-7.6,0-14.8,1.7-20.2,4.8c-5.3,3.1-8.2,7.2-8.3,11.5c0,4.3,2.9,8.4,8.2,11.5c5.3,3.2,12.5,4.8,20.1,4.8s14.8-1.7,20.2-4.8
	c5.3-3.1,8.2-7.2,8.3-11.5c0-4.3-2.8-8.4-8.2-11.5S850.9,392.8,843.3,392.8z M820.7,346.3l-24.9-14.5c-0.5-0.2-1.2-0.2-1.6,0
	l-16.5,9.7c-0.5,0.2-0.5,0.7,0,0.9l24.9,14.5c0.5,0.2,1.2,0.2,1.6,0l16.5-9.7C821.2,347,821.2,346.6,820.7,346.3z M793.6,334.1
	c0,0.2-0.1,0.5,0,0.6l1.5,7.3l-12.5-0.8h-1.1L793.6,334.1z M803.1,355.4L780.2,342c0.6-0.2,1.4-0.3,2.2-0.3l12.8,0.8l0.2,1.2
	c0.2,0.7,0.7,1.3,1.5,1.8s2,0.8,3.2,0.9l2,0.2l1.5,7.5C803.7,354.6,803.6,355.1,803.1,355.4L803.1,355.4z M804.7,354.8v-0.6
	l-1.5-7.3l12.5,0.8h1.1L804.7,354.8z M815.9,347l-14.5-1l-1.2-0.1c-0.5-0.1-1.1-0.2-1.6-0.3c-0.3-0.1-0.6-0.2-0.8-0.4
	c-0.1-0.1-0.2-0.1-0.2-0.2c-0.4-0.2-0.7-0.5-0.8-0.8l-0.2-0.4l-1.8-9.2c-0.1-0.5,0.1-0.9,0.5-1.3l22.9,13.4
	C817.5,346.9,816.7,347,815.9,347L815.9,347z" />
  <path class="st1" d="M798.5,362.3c-7.8,0-15-1.8-20.5-5s-8.5-7.5-8.5-12.2s3.1-9,8.7-12.2c5.5-3.2,12.8-5,20.5-5
	c7.8,0,15,1.8,20.5,5s8.5,7.5,8.5,12.2c0,4.6-3.1,9-8.7,12.2C813.6,360.5,806.3,362.3,798.5,362.3z M798.7,328.8
	c-7.6,0-14.8,1.7-20.2,4.8c-5.3,3.1-8.2,7.2-8.3,11.5c0,4.3,2.9,8.4,8.2,11.5c5.3,3.2,12.5,4.8,20.1,4.8s14.8-1.7,20.2-4.8
	c5.3-3.1,8.2-7.2,8.3-11.5c0-4.3-2.9-8.4-8.2-11.5C813.4,330.4,806.4,328.8,798.7,328.8z M743.2,426.9l2.8,1.6
	c0.3,0.2,0.8,0.2,1.1,0l2.8-1.6c0.3-0.2,0.3-0.5,0-0.6l-2.8-1.6c-0.3-0.2-0.8-0.2-1.1,0l-2.8,1.6
	C742.9,426.4,742.9,426.8,743.2,426.9z M755.7,429.7l-2.8-1.6c-0.3-0.2-0.8-0.2-1.1,0l-2.8,1.6c-0.3,0.2-0.3,0.5,0,0.6l2.8,1.6
	c0.3,0.2,0.8,0.2,1.1,0l2.8-1.6C756,430.1,756,429.8,755.7,429.7z" />
  <path class="st15" d="M732.4,426.5l2.8,1.6c0.3,0.2,0.8,0.2,1.1,0l2.8-1.6c0.3-0.2,0.3-0.5,0-0.6l-2.8-1.6c-0.3-0.2-0.8-0.2-1.1,0
	l-2.8,1.6C732,426.1,732,426.3,732.4,426.5z" />
  <path class="st1" d="M734.3,428.7l-2.8-1.6c-0.3-0.2-0.8-0.2-1.1,0l-2.8,1.6c-0.3,0.2-0.3,0.5,0,0.6l2.8,1.6c0.3,0.2,0.8,0.2,1.1,0
	l2.8-1.6C734.6,429.1,734.6,428.9,734.3,428.7z M740,432.1l-2.8-1.6c-0.3-0.2-0.8-0.2-1.1,0l-2.8,1.6c-0.3,0.2-0.3,0.5,0,0.6
	l2.8,1.6c0.3,0.2,0.8,0.2,1.1,0l2.8-1.6C740.4,432.5,740.4,432.2,740,432.1z M744.9,429.2l-2.8-1.6c-0.3-0.2-0.8-0.2-1.1,0l-2.8,1.6
	c-0.3,0.2-0.3,0.5,0,0.6l2.8,1.6c0.3,0.2,0.8,0.2,1.1,0l2.8-1.6C745.2,429.7,745.2,429.4,744.9,429.2z M750.7,432.6l-2.8-1.6
	c-0.3-0.2-0.8-0.2-1.1,0l-2.8,1.6c-0.3,0.2-0.3,0.5,0,0.6l2.8,1.6c0.3,0.2,0.8,0.2,1.1,0l2.8-1.6C751,433.1,751,432.8,750.7,432.6z" />
  <path class="st1" d="M741.6,416.6l-22,12.9l22.2,12.9l22-12.9L741.6,416.6z M741.7,440.8l-19.4-11.3l19.3-11.3l19.5,11.3
	L741.7,440.8L741.7,440.8z" />
  <path class="st1" d="M741.7,446.5c-7.8,0-15-1.8-20.5-5s-8.5-7.5-8.5-12.2c0-4.6,3.1-9,8.7-12.2c5.5-3.2,12.8-5,20.5-5
	c7.8,0,15,1.8,20.5,5s8.5,7.5,8.5,12.2c0,4.6-3.1,9-8.7,12.2C756.7,444.8,749.4,446.5,741.7,446.5z M741.9,413
	c-7.6,0-14.8,1.7-20.2,4.8c-5.3,3.1-8.2,7.2-8.3,11.5c0,4.3,2.9,8.4,8.2,11.5c5.3,3.2,12.5,4.8,20.1,4.8s14.8-1.7,20.2-4.8
	c5.3-3.1,8.2-7.2,8.3-11.5c0-4.3-2.8-8.4-8.2-11.5C756.7,414.7,749.5,413,741.9,413z M536.2,222.1c0.2-0.5,0.2-0.9,0-1.5l2.1-0.5
	l-0.8-1.5l-2.2,0.4c-0.2-0.2-0.5-0.4-0.7-0.5s-0.3-0.2-0.5-0.3s-0.2-0.2-0.4-0.2l1.1-1.2l-2.3-0.8l-1.3,1.2
	c-0.8-0.2-1.5-0.2-2.4-0.2l-0.5-1.3l-2.7,0.2l0.2,1.4c-0.8,0.2-1.5,0.4-2.1,0.7l-1.8-0.8l-1.8,1.2l1.7,0.9c-0.4,0.4-0.7,0.8-0.8,1.3
	h-2.2l-0.1,1.5l2.3,0.1c0.2,0.5,0.4,0.9,0.8,1.4l-1.6,0.8l1.7,1.2l1.8-0.8c0.7,0.3,1.4,0.5,2.2,0.7l-0.3,1.2l2.6,0.3l0.5-1.3
	c0.8,0,1.6-0.1,2.5-0.2l1.2,1.1l2.4-0.8l-1-1.2c0.6-0.3,1.2-0.7,1.5-1.1l2.1,0.4l1-1.5L536.2,222.1L536.2,222.1z M530.2,224.4
	c-2,0.4-4.1,0.1-5.5-0.8c-0.5-0.3-1-0.8-1.3-1.2c-0.9-1.6,0.5-3.4,3.4-3.9c2-0.4,4.1-0.1,5.5,0.8c0.5,0.3,1,0.8,1.3,1.2
	C534.5,222.1,533,223.8,530.2,224.4z" />
  <path class="st1" d="M519.7,214.4c0.8,0.2,1.5,0.3,2.2,0.4l-0.1,1.3l2.7,0.2l0.3-1.3c1.1,0,2.1-0.2,3.1-0.3l1.1,1.2l2.5-0.7
	l-0.8-1.2c0.8-0.3,1.7-0.7,2.4-1.2l1.9,0.7l1.5-1.3l-1.8-0.8c0.2-0.2,0.2-0.3,0.3-0.4c0.3-0.5,0.5-0.8,0.7-1.3l2.2,0.1l0.2-1.6
	l-2.2-0.2c-0.1-0.6-0.2-1.2-0.5-1.8l1.9-0.6l-1.2-1.5l-2,0.5c-0.5-0.4-1-0.8-1.6-1.2c-0.2-0.1-0.3-0.2-0.5-0.2l1.2-1.1l-2.2-0.9
	l-1.3,1c-0.2-0.1-0.5-0.2-0.7-0.2c-0.8-0.2-1.5-0.3-2.2-0.4l0.1-1.3l-2.7-0.2l-0.3,1.3c-1.1,0-2.1,0.2-3.1,0.3l-1.1-1.2l-2.5,0.7
	l0.8,1.2c-0.8,0.3-1.7,0.7-2.4,1.2l-1.9-0.7l-1.5,1.3l1.8,0.8c-0.2,0.2-0.2,0.3-0.3,0.4c-0.3,0.5-0.5,0.8-0.7,1.3l-2.2-0.1l-0.2,1.6
	l2.2,0.2c0.1,0.6,0.2,1.2,0.5,1.8l-1.9,0.6l1.2,1.5l2-0.5c0.5,0.4,1,0.8,1.6,1.2l0.5,0.2l-1.2,1.1l2.2,0.9l1.3-1
	C519.2,214.2,519.4,214.3,519.7,214.4z M516.6,205.5c2.5-2.5,8-3.3,12.2-1.8c0.7,0.2,1.2,0.5,1.8,0.8c2.8,1.6,3.5,4.2,1.4,6.4
	c-2.5,2.5-8,3.3-12.2,1.8c-0.6-0.2-1.2-0.5-1.8-0.8C515.1,210.1,514.5,207.5,516.6,205.5z" />
  <path class="st1" d="M525,231.4c-7.8,0-15-1.8-20.5-5s-8.5-7.5-8.5-12.2s3.1-9,8.7-12.2c5.5-3.2,12.8-5,20.5-5s15,1.8,20.5,5
	s8.5,7.5,8.5,12.2c0,4.6-3.1,9-8.7,12.2C540,229.6,532.7,231.4,525,231.4z M525.1,197.8c-7.6,0-14.8,1.7-20.2,4.8
	c-5.3,3.1-8.2,7.2-8.3,11.5c0,4.3,2.9,8.4,8.2,11.5c5.3,3.2,12.5,4.8,20.1,4.8s14.8-1.7,20.2-4.8c5.3-3.1,8.2-7.2,8.3-11.5
	c0-4.3-2.9-8.4-8.2-11.5S532.7,197.8,525.1,197.8z" />
  <path class="st15" d="M449.4,244.3c2.3,1.2,3.5,2.9,3.5,4.7c0,0.5-0.8,1-1.8,1c-0.5,0-0.9-0.1-1.3-0.3c-0.3-0.2-0.5-0.5-0.5-0.7
	c0-1.2-0.9-2.5-2.5-3.3c-1.6-0.9-3.8-1.4-6-1.4c-0.5,0-0.9-0.1-1.2-0.3c-0.3-0.2-0.5-0.5-0.5-0.7c0-0.5,0.8-1,1.8-1
	C444.1,242.3,447.1,243,449.4,244.3z M461.4,237.6c2.7,1.5,4.8,3.2,6.3,5.2s2.3,4.1,2.3,6.3c0,0.5-0.8,1-1.8,1
	c-0.5,0-0.9-0.1-1.2-0.3c-0.3-0.2-0.5-0.5-0.5-0.7c0-1.9-0.7-3.8-2.1-5.5c-1.3-1.7-3.2-3.2-5.5-4.5c-2.4-1.3-5.1-2.3-8.2-3
	c-3.2-0.8-6.5-1.1-10-1.1c-0.5,0-0.9-0.1-1.2-0.3c-0.3-0.2-0.5-0.5-0.5-0.7c0-0.5,0.8-1,1.8-1c3.9,0,7.8,0.5,11.4,1.2
	C455.6,234.9,458.7,236.1,461.4,237.6L461.4,237.6z" />
  <path class="st15" d="M455.4,240.9c1.9,1.1,3.4,2.2,4.5,3.6s1.6,2.9,1.6,4.5c0,0.5-0.8,1-1.8,1c-0.5,0-0.9-0.1-1.2-0.3
	c-0.3-0.2-0.5-0.5-0.5-0.7c0-2.5-1.8-4.8-5-6.7c-3.2-1.8-7.5-2.8-12.1-2.8c-0.5,0-0.9-0.1-1.3-0.3c-0.3-0.2-0.5-0.5-0.5-0.7
	c0-0.5,0.8-1,1.8-1c2.8,0,5.5,0.3,8,0.9S453.5,239.9,455.4,240.9z M443.7,247.5c0.8,0.5,1.3,1.1,1.3,1.7c0,1.3-1.9,2.4-4.3,2.4
	c-1.2,0-2.2-0.2-3.1-0.7c-0.8-0.5-1.2-1.1-1.3-1.7c0-1.3,1.9-2.4,4.3-2.4C441.8,246.8,442.8,247,443.7,247.5z" />
  <path class="st1" d="M450.5,261.3c-7.8,0-15-1.8-20.5-5s-8.5-7.5-8.5-12.2s3.1-9,8.7-12.2c5.5-3.2,12.8-5,20.5-5
	c7.8,0,15,1.8,20.5,5s8.5,7.5,8.5,12.2c0,4.6-3.1,9-8.7,12.2C465.5,259.5,458.3,261.3,450.5,261.3z M450.7,227.8
	c-7.6,0-14.8,1.7-20.2,4.8c-5.3,3.1-8.2,7.2-8.3,11.5c0,4.3,2.9,8.4,8.2,11.5c5.3,3.2,12.5,4.8,20.1,4.8s14.8-1.7,20.2-4.8
	c5.3-3.1,8.2-7.2,8.3-11.5c0-4.3-2.9-8.4-8.2-11.5C465.4,229.5,458.3,227.8,450.7,227.8z" />
  <path class="st16" d="M754.2,299.1c2.9,1.7,2.9,4.5,0,6.2l-94.5,55.5c-2.9,1.7-7.7,1.7-10.6,0l-147.8-86.2c-2.9-1.7-3-4.5-0.1-6.2
	l94.5-55.5c2.9-1.7,7.7-1.7,10.6,0L754.2,299.1L754.2,299.1z" />
  <linearGradient id="SVGID_10_" gradientUnits="userSpaceOnUse" x1="-2719.1157" y1="1241.6001" x2="-2461.416" y2="1241.6001"
    gradientTransform="matrix(-1 0 0 1 -1962.416 -922)">
    <stop offset="0" style="stop-color:#A7CAEC" />
    <stop offset="1" style="stop-color:#90B5E0" />
  </linearGradient>
  <path class="st17" d="M756.3,303c-0.1,0.3-0.2,0.5-0.4,0.8c0,0.1-0.1,0.1-0.1,0.2c-0.2,0.2-0.4,0.5-0.6,0.7
	c-0.2,0.2-0.3,0.2-0.5,0.4s-0.3,0.2-0.5,0.4l-94.5,55.4c-0.3,0.2-0.7,0.4-1.1,0.5c-0.1,0-0.2,0.1-0.3,0.1c-0.2,0.1-0.5,0.2-0.7,0.2
	c-0.2,0.1-0.5,0.2-0.8,0.2c-0.3,0.1-0.6,0.2-0.9,0.2h-0.2c-0.4,0.1-0.8,0.1-1.3,0.1h-0.2c-0.4,0-0.8,0-1.2-0.1h-0.2
	c-0.4-0.1-0.8-0.2-1.2-0.2c-0.1,0-0.2,0-0.2-0.1c-0.4-0.1-0.7-0.2-1.1-0.3c-0.1,0-0.2-0.1-0.2-0.1c-0.4-0.2-0.8-0.3-1.2-0.5
	l-147.7-86.1c-1.5-0.8-2.2-2-2.2-3.2v5.5c0,1.2,0.8,2.2,2.2,3.2L649,366.2c0.3,0.2,0.7,0.4,1.1,0.5h0.1c0.1,0,0.2,0.1,0.2,0.1
	c0.2,0.1,0.5,0.2,0.7,0.2s0.2,0.1,0.4,0.1c0.1,0,0.2,0,0.2,0.1c0.1,0,0.2,0.1,0.2,0.1c0.2,0.1,0.5,0.1,0.8,0.2h0.7
	c0.2,0,0.5,0,0.8,0.1h0.7c0.3,0,0.5,0,0.8-0.1h0.3c0.2,0,0.5-0.1,0.6-0.1s0.2-0.1,0.3-0.1c0.2-0.1,0.5-0.1,0.8-0.2
	c0.2,0,0.3-0.1,0.4-0.1s0.2-0.1,0.3-0.2c0.1,0,0.2-0.1,0.3-0.1c0.4-0.2,0.7-0.3,1.1-0.5l94.5-55.5c0,0,0.1,0,0.1-0.1
	c0.2-0.1,0.2-0.2,0.4-0.3c0.2-0.2,0.4-0.2,0.5-0.4l0.1-0.1l0.5-0.5c0-0.1,0.1-0.1,0.1-0.2s0.1-0.1,0.1-0.2c0.1-0.1,0.1-0.2,0.2-0.2
	v-0.1v0.1c0.1-0.2,0.2-0.3,0.2-0.5V308c0-0.1,0.1-0.2,0.1-0.3v-0.2v0.2c0-0.2,0.1-0.3,0.1-0.5v-5.6
	C756.4,302.4,756.4,302.7,756.3,303L756.3,303z" />
  <linearGradient id="SVGID_11_" gradientUnits="userSpaceOnUse" x1="551.325" y1="1223.9" x2="649.675" y2="1223.9"
    gradientTransform="matrix(1 0 0 1 0 -922)">
    <stop offset="0" style="stop-color:#A7CAEC" />
    <stop offset="1" style="stop-color:#90B5E0" />
  </linearGradient>
  <path class="st18" d="M649.3,307.8l-59.1-34.5c-0.5-0.3-1.4-0.3-1.9,0l-36.6,21.5c-0.5,0.3-0.5,0.8,0,1.2l59.1,34.5
	c0.5,0.3,1.4,0.3,1.9,0l36.6-21.5C649.8,308.7,649.8,308.1,649.3,307.8z" />
  <linearGradient id="SVGID_12_" gradientUnits="userSpaceOnUse" x1="564" y1="1196.55" x2="733.3" y2="1196.55"
    gradientTransform="matrix(1 0 0 1 0 -922)">
    <stop offset="0" style="stop-color:#A7CAEC" />
    <stop offset="1" style="stop-color:#90B5E0" />
  </linearGradient>
  <path class="st19" d="M733.3,298.8v0.2l-6.8,4h-0.3l-13.4-7.8V295l6.8-4h0.3L733.3,298.8z M699,289.3h-0.3l-6.8,4v0.2l6.8,4h0.3
	l6.8-4v-0.2L699,289.3z M672.1,305.1h-0.3l-6.8,4v0.2l6.8,4h0.3l6.8-4v-0.2L672.1,305.1z M571.1,246.1h-0.3l-6.8,4v0.2l6.8,4h0.3
	l6.8-4v-0.2L571.1,246.1z M580.3,251.5H580l-6.8,4v0.2l6.8,4h0.3l6.8-4v-0.2L580.3,251.5L580.3,251.5z M589.5,256.8h-0.3l-6.8,4v0.2
	l6.8,4h0.3l6.8-4v-0.2L589.5,256.8z M662.5,267.9h-0.3l-6.8,4v0.2l6.8,4h0.3l6.8-4v-0.2L662.5,267.9z M618.7,232h-0.3l-6.8,4v0.2
	l6.8,4h0.3l6.8-4V236L618.7,232z M607.2,235.7h-0.3l-6.8,4v0.2l6.8,4h0.3l6.8-4v-0.2L607.2,235.7z M628,237.4h-0.3l-6.8,4v0.2l6.8,4
	h0.3l6.8-4v-0.2L628,237.4z M589.1,235.5h-0.3l-6.8,4v0.2l11.4,6.6h0.3l6.8-4v-0.2L589.1,235.5z M616.4,241.1h-0.3l-6.8,4v0.2l6.8,4
	h0.3l6.8-4v-0.2L616.4,241.1z M602.9,243.6h-0.3l-6.8,4v0.2l6.8,4h0.3l6.8-4v-0.2L602.9,243.6z M580.1,240.8h-0.3l-6.8,3.9v0.2
	l16,9.3h0.3l6.8-4V250L580.1,240.8z M625.6,246.5h-0.3l-6.8,4v0.2l6.8,4h0.3l6.8-4v-0.2L625.6,246.5z M612.1,249h-0.3l-6.8,4v0.2
	l6.8,4h0.3l6.8-4V253L612.1,249L612.1,249z M598.6,251.5h-0.3l-6.8,4v0.2l6.8,4h0.3l6.8-4v-0.2L598.6,251.5L598.6,251.5z
	 M634.8,251.8h-0.3l-6.8,4v0.2l6.8,4h0.3l6.8-4v-0.2L634.8,251.8z M621.3,254.4H621l-6.8,4v0.2l6.8,4h0.3l6.8-3.9v-0.2L621.3,254.4
	L621.3,254.4z M607.7,256.9h-0.3l-6.8,4v0.2l6.8,4h0.3l6.8-4v-0.2L607.7,256.9z M644,257.1h-0.3l-6.8,4v0.2l6.8,4h0.3l6.8-4v-0.2
	L644,257.1z M630.5,259.7h-0.3l-6.8,4v0.2l6.8,4h0.3l6.8-4v-0.2L630.5,259.7z M617,262.3h-0.3l-6.8,4v0.2l6.8,4h0.3l6.8-4v-0.2
	L617,262.3z M598.7,262.2h-0.3l-6.8,4v0.2l6.8,4h0.3l6.8-4v-0.2L598.7,262.2z M653.3,262.5H653l-6.8,4v0.2l6.8,4h0.3l6.8-4v-0.2
	L653.3,262.5z M639.7,265.1h-0.3l-6.8,4v0.2l6.8,4h0.3l6.8-3.9v-0.2L639.7,265.1z M626.2,267.7h-0.3l-6.8,4v0.2l6.8,4h0.3l6.8-4
	v-0.2L626.2,267.7z M649,270.4h-0.3l-6.8,4v0.2l6.8,3.9h0.3l6.8-3.9v-0.2L649,270.4z M635.4,273h-0.3l-6.8,4v0.2l6.8,4h0.3l6.8-4
	V277L635.4,273z M644.7,278.4h-0.3l-6.8,4v0.2l6.8,4h0.3l6.8-4v-0.2L644.7,278.4z M607.9,267.6h-0.3l-6.8,4v0.2l43.7,25.5h0.3l6.8-4
	v-0.2L607.9,267.6z M653.7,294.3h-0.3l-6.8,4v0.2l6.8,3.9h0.3l6.8-4v-0.2L653.7,294.3z M663,299.7h-0.3l-6.8,4v0.2l6.8,4h0.3l6.8-4
	v-0.2L663,299.7z M704,302.5h-0.3l-6.8,4v0.2l11.4,6.6h0.3l6.8-4v-0.2L704,302.5z M681.4,310.4H681l-6.8,4v0.2l6.8,4h0.3l6.8-4v-0.2
	L681.4,310.4L681.4,310.4z M690.6,315.8h-0.3l-6.8,4v0.2l6.8,4h0.3l6.8-4v-0.2L690.6,315.8z M690.4,305.1h-0.3l-6.8,4v0.2l16,9.3
	h0.3l6.8-4v-0.2L690.4,305.1z M694.7,297.1h-0.3l-6.8,4v0.2l6.8,4h0.3l6.8-4v-0.2L694.7,297.1z M681.2,299.8h-0.3l-6.8,4v0.2l6.8,4
	h0.3l6.8-4v-0.2L681.2,299.8z M685.6,291.8h-0.3l-6.8,4v0.2l6.8,4h0.3l6.8-4v-0.2L685.6,291.8z M672,294.4h-0.3l-6.8,4v0.2l6.8,4
	h0.3l6.8-4v-0.2L672,294.4z M671.7,273.3h-0.3l-6.8,4v0.2l6.8,4h0.3l6.8-4v-0.2L671.7,273.3z M658.1,275.8h-0.3l-6.8,3.9v0.2l6.8,4
	h0.3l6.8-4v-0.2L658.1,275.8z M680.7,278.5h-0.3l-6.8,4v0.2l6.8,4h0.3l6.8-4v-0.2L680.7,278.5z M667.4,281.2H667l-6.8,4v0.2l6.8,4
	h0.3l6.8-4v-0.2L667.4,281.2L667.4,281.2z M653.8,283.8h-0.3l-6.8,4v0.2l6.8,4h0.3l6.8-4v-0.2L653.8,283.8z M676.4,286.4H676l-6.8,4
	v0.2l6.8,4h0.3l6.8-3.9v-0.2L676.4,286.4L676.4,286.4z M662.8,289h-0.3l-6.8,4v0.2l6.8,4h0.3l6.8-4V293L662.8,289z M689.9,283.9
	h-0.3l-6.8,4v0.2l6.8,4h0.3l6.8-4v-0.2L689.9,283.9z M701.4,280.1h-0.3l-6.8,4v0.2l6.8,4h0.3l6.8-4v-0.2L701.4,280.1z M710.7,285.5
	h-0.3l-6.8,4v0.2l6.8,4h0.3l6.8-4v-0.2L710.7,285.5z M692.2,274.8h-0.3l-6.8,4v0.2l6.8,4h0.3l6.8-4v-0.2L692.2,274.8z M683.3,269.6
	H683l-6.8,4v0.2l6.8,4h0.3l6.8-4v-0.2L683.3,269.6z M674,264.2h-0.3l-6.8,4v0.2l6.8,4h0.3l6.8-4v-0.2L674,264.2z M637.2,242.7h-0.3
	l-6.8,4v0.2l6.8,4h0.3l6.8-4v-0.2L637.2,242.7z M646.4,248.1h-0.3l-6.8,4v0.2l6.8,4h0.3l6.8-4v-0.2L646.4,248.1L646.4,248.1z
	 M655.7,253.5h-0.3l-6.8,4v0.2l6.8,4h0.3l6.8-4v-0.2L655.7,253.5z M664.8,258.8h-0.3l-6.8,4v0.2l6.8,4h0.3l6.8-4v-0.2L664.8,258.8z
	 M708.3,294.6H708l-6.8,4v0.2l6.8,4h0.3l6.8-4v-0.2L708.3,294.6z M717.5,300h-0.3l-6.8,4v0.2l6.8,4h0.3l6.8-4V304L717.5,300z
	 M606.9,225.1h-0.3l-6.8,4v0.2l9.5,5.5h0.3l6.8-4v-0.2L606.9,225.1z M598,230.3h-0.3l-6.8,4v0.2l6.8,4h0.3l6.8-4v-0.2L598,230.3z" />
  <linearGradient id="SVGID_13_" gradientUnits="userSpaceOnUse" x1="-2696.4163" y1="1198.7118" x2="-2573.6782" y2="1011.7708"
    gradientTransform="matrix(-1 0 0 1 -1962.416 -922)">
    <stop offset="0" style="stop-color:#14308C" />
    <stop offset="1" style="stop-color:#01113F" />
  </linearGradient>
  <path class="st20" d="M754.5,176.8c2.9,1.7,5.3,5.8,5.3,9.3l-0.3,110.5c0,3.4-2.4,4.8-5.3,3.1l-147.8-86.2c-2.9-1.7-5.3-5.8-5.3-9.3
	l0.3-110.5c0-3.4,2.4-4.8,5.3-3.1L754.5,176.8L754.5,176.8z" />
  <linearGradient id="SVGID_14_" gradientUnits="userSpaceOnUse" x1="-2646.116" y1="1222.1" x2="-2646.116" y2="1009.0944"
    gradientTransform="matrix(-1 0 0 1 -1962.416 -922)">
    <stop offset="0" style="stop-color:#A7CAEC" />
    <stop offset="1" style="stop-color:#90B5E0" />
  </linearGradient>
  <path class="st21" d="M759.2,174L611.4,87.8c-1.5-0.8-2.8-0.9-3.8-0.4c-1.5,0.9-3.1,1.8-4.7,2.8c1-0.5,2.3-0.5,3.8,0.4l147.8,86.2
	c2.9,1.7,5.3,5.8,5.3,9.3l-0.3,110.5c0,1.7-0.6,2.9-1.5,3.5c1.5-0.9,3.1-1.8,4.7-2.8c0.9-0.5,1.5-1.8,1.5-3.5l0.3-110.5
	C764.5,179.9,762.1,175.8,759.2,174L759.2,174z" />
  <linearGradient id="SVGID_15_" gradientUnits="userSpaceOnUse" x1="-2581.9231" y1="1039.79" x2="-2712.5481" y2="1203.328"
    gradientTransform="matrix(-1 0 0 1 -1962.416 -922)">
    <stop offset="0" style="stop-color:#50C5FF" />
    <stop offset="0.275" style="stop-color:#1251B0" />
    <stop offset="0.439" style="stop-color:#030F42" />
    <stop offset="1" style="stop-color:#030F42" />
  </linearGradient>
  <path class="st22" d="M754.2,183.5l-0.3,106.1l-148.3-86.3l0.3-106.1L754.2,183.5z" />
  <linearGradient id="SVGID_16_" gradientUnits="userSpaceOnUse" x1="-2736.9255" y1="1009.8361" x2="-2710.3735" y2="1101.2561"
    gradientTransform="matrix(-1 0 0 1 -1962.416 -922)">
    <stop offset="0" style="stop-color:#EE4BF7" />
    <stop offset="1" style="stop-color:#50C5FF" />
  </linearGradient>
  <path class="st23" d="M819.3,103.6v5.6L710.9,45.6l-0.3,86.7L819,195.9C819,195.9,819.3,103.6,819.3,103.6z" />
  <linearGradient id="SVGID_17_" gradientUnits="userSpaceOnUse" x1="-2781.7161" y1="996.6" x2="-2673.3159" y2="996.6"
    gradientTransform="matrix(-1 0 0 1 -1962.416 -922)">
    <stop offset="0" style="stop-color:#35E4FC" />
    <stop offset="1" style="stop-color:#50C5FF" />
  </linearGradient>
  <path class="st24" d="M710.9,40v5.6l108.4,63.6v-5.6L710.9,40z" />
  <linearGradient id="SVGID_18_" gradientUnits="userSpaceOnUse" x1="-2484.1677" y1="1254.0549" x2="-2454.4797" y2="1356.267"
    gradientTransform="matrix(-1 0 0 1 -1962.416 -922)">
    <stop offset="0" style="stop-color:#EE4BF7" />
    <stop offset="1" style="stop-color:#50C5FF" />
  </linearGradient>
  <path class="st25" d="M571.8,349.7l-0.1,6.3l-121.1-71.1l-0.3,96.9l121.2,71.1L571.8,349.7z" />
  <linearGradient id="SVGID_19_" gradientUnits="userSpaceOnUse" x1="-2534.2161" y1="1239.3" x2="-2413.0161" y2="1239.3"
    gradientTransform="matrix(-1 0 0 1 -1962.416 -922)">
    <stop offset="0" style="stop-color:#35E4FC" />
    <stop offset="1" style="stop-color:#50C5FF" />
  </linearGradient>
  <path class="st26" d="M450.6,278.6v6.3L571.7,356l0.1-6.3L450.6,278.6L450.6,278.6z" />
  <linearGradient id="SVGID_20_" gradientUnits="userSpaceOnUse" x1="-2573.1318" y1="1311.843" x2="-2553.697" y2="1378.761"
    gradientTransform="matrix(-1 0 0 1 -1962.416 -922)">
    <stop offset="0" style="stop-color:#EE4BF7" />
    <stop offset="1" style="stop-color:#50C5FF" />
  </linearGradient>
  <path class="st27" d="M643.5,401.4v4.2L564.1,359l-0.2,63.5l79.4,46.5L643.5,401.4z" />
  <linearGradient id="SVGID_21_" gradientUnits="userSpaceOnUse" x1="-2605.916" y1="1302.15" x2="-2526.5161" y2="1302.15"
    gradientTransform="matrix(-1 0 0 1 -1962.416 -922)">
    <stop offset="0" style="stop-color:#35E4FC" />
    <stop offset="1" style="stop-color:#50C5FF" />
  </linearGradient>
  <path class="st28" d="M564.2,354.8l-0.1,4.2l79.4,46.5v-4.2L564.2,354.8L564.2,354.8z" />
  <linearGradient id="SVGID_22_" gradientUnits="userSpaceOnUse" x1="-2818.1099" y1="1109.334" x2="-2804.1179" y2="1157.5079"
    gradientTransform="matrix(-1 0 0 1 -1962.416 -922)">
    <stop offset="0" style="stop-color:#EE4BF7" />
    <stop offset="1" style="stop-color:#50C5FF" />
  </linearGradient>
  <path class="st29" d="M875.4,189.8v5.6l-49.3-29.2l-0.2,47.8l49.3,29.2L875.4,189.8L875.4,189.8z" />
  <linearGradient id="SVGID_23_" gradientUnits="userSpaceOnUse" x1="-2837.8159" y1="1100.05" x2="-2788.5161" y2="1100.05"
    gradientTransform="matrix(-1 0 0 1 -1962.416 -922)">
    <stop offset="0" style="stop-color:#35E4FC" />
    <stop offset="1" style="stop-color:#50C5FF" />
  </linearGradient>
  <path class="st30" d="M826.1,160.7v5.5l49.3,29.2v-5.6L826.1,160.7L826.1,160.7z" />
  <linearGradient id="SVGID_24_" gradientUnits="userSpaceOnUse" x1="-2571.4189" y1="1034.748" x2="-2545.47" y2="1124.09"
    gradientTransform="matrix(-1 0 0 1 -1962.416 -922)">
    <stop offset="0" style="stop-color:#EE4BF7" />
    <stop offset="1" style="stop-color:#50C5FF" />
  </linearGradient>
  <path class="st31" d="M663.2,136.8v5.1L536.3,68.5l-0.2,79.5L663,221.4L663.2,136.8L663.2,136.8z" />
  <linearGradient id="SVGID_25_" gradientUnits="userSpaceOnUse" x1="-2625.616" y1="1024.6" x2="-2498.7161" y2="1024.6"
    gradientTransform="matrix(-1 0 0 1 -1962.416 -922)">
    <stop offset="0" style="stop-color:#35E4FC" />
    <stop offset="1" style="stop-color:#50C5FF" />
  </linearGradient>
  <path class="st32" d="M536.3,63.3v5.2l126.9,73.4v-5.1L536.3,63.3z" />
  <g class="st33">
    <path class="st1" d="M594.6,126.2v3.2l11.5,6.8l0.1-3.2L594.6,126.2z M600.7,152.5v3.2l4.6,2.7v-3.2L600.7,152.5z M585.5,166.1v3.2
		l18.5,10.8V177L585.5,166.1z M570.1,157.1v3.2l13.6,7.9V165L570.1,157.1z M576.7,155.4v3.2l13.1,7.6V163L576.7,155.4L576.7,155.4z
		 M591.8,164.1v3.2l15.1,8.8l0.1-3.2L591.8,164.1L591.8,164.1z" />
    <g class="st4">
      <path class="st1" d="M585.1,143.3v3.2l13.1,7.6v-3.2L585.1,143.3z M582.9,153.3v3.2l29.7,17.2v-3.2L582.9,153.3z M585.5,149.2v3.2
			l32.5,18.9v-3.2L585.5,149.2z M591.4,135.7v3.2l13.1,7.6v-3.2L591.4,135.7z M585.6,137.9v3.2l25.4,14.8v-3.2L585.6,137.9z
			 M591.7,130.2v3.2l23.6,13.8l0.1-3.2L591.7,130.2L591.7,130.2z M607.3,144.9v3.2l17.9,10.5v-3.2L607.3,144.9z" />
      <path class="st15" d="M617.5,145.3v3.2l3.2,1.8v-3.2L617.5,145.3z" />
      <path class="st1" d="M609.1,134.8v3.2l18.1,10.5v-3.2L609.1,134.8z M622.4,136.8v3.2l11.3,6.6v-3.2L622.4,136.8z" />
    </g>
    <path class="st1" d="M602.4,125.2v3.2l11.6,6.8V132L602.4,125.2z" />
    <path class="st34" d="M607.7,117l-0.1,3.2l16.5,9.6v-3.2C624.1,126.6,607.7,117,607.7,117z" />
    <path class="st1" d="M584.4,120.3v3.2l7,4.1v-3.2L584.4,120.3z M583.8,131.3v3.2l4.8,2.8v-3.2L583.8,131.3z" />
    <path class="st34" d="M585.3,126.5v3.2l3.9,2.2v-3.2L585.3,126.5z" />
    <path class="st1" d="M586.5,115.9v3.2l13.1,7.6v-3.2L586.5,115.9z M595,115.2v3.2l8.6,5v-3.2L595,115.2z" />
    <path class="st34" d="M592.1,107.8L592,111l13.1,7.6l0.1-3.2L592.1,107.8z" />
    <path class="st1" d="M571.3,112.7v3.2l13.1,7.6v-3.2L571.3,112.7z M559.1,145.1v3.2l15.9,9.3v-3.2L559.1,145.1z M545.9,131.8v3.2
		l28,16.4l0.1-3.2L545.9,131.8z M571,129.5v3.2l12.8,7.5V137L571,129.5z" />
    <path class="st34" d="M578.2,139.3v3.2l4.6,2.7V142L578.2,139.3z" />
    <path class="st1" d="M567.7,138.8v3.2l16.1,9.4v-3.2L567.7,138.8z" />
    <g class="st4">
      <path class="st34" d="M564.7,125.8v3.2l4,2.3v-3.2L564.7,125.8z" />
      <path class="st1" d="M556.1,126.5v3.2l18.9,11.1l0.1-3.2C575.1,137.6,556.1,126.5,556.1,126.5z M566.3,121.1v3.2l15.5,9.1v-3.2
			L566.3,121.1z" />
    </g>
    <path class="st34" d="M576,149.3v3.2l4.2,2.4v-3.2L576,149.3z" />
    <path class="st15" d="M641.3,142.2v3.2l3.4,2v-3.2L641.3,142.2z M636.2,133.6v3.2l11.4,6.6v-3.2L636.2,133.6z M615.9,133.1v3.2
		l3.7,2.2l0.1-3.2L615.9,133.1z M637,151v3.2l7.5,4.4l0.1-3.2L637,151z M637,162.3v3.2l7.6,4.5v-3.2L637,162.3z M613.7,154.3v3.2
		l4,2.3v-3.2L613.7,154.3z M637,173.5v3.2l7.6,4.4V178L637,173.5z M620.1,169.4v3.2l3.6,2.1v-3.2L620.1,169.4z" />
    <path class="st1" d="M608.2,156.8v3.2l18.9,11v-3.2L608.2,156.8z M623.7,148.9v3.2l10,5.8v-3.2L623.7,148.9z" />
    <path class="st15" d="M631.7,147.9v3.2l3.2,1.8v-3.2L631.7,147.9z" />
    <path class="st1" d="M621.7,159v3.2l12,7V166L621.7,159z" />
    <path class="st15" d="M631.7,159.1v3.2l3.1,1.8V161L631.7,159.1z" />
    <path class="st1" d="M613.9,182.7v3.2l9.3,5.4v-3.2L613.9,182.7z" />
    <g class="st4">
      <path class="st1" d="M619.5,174.7v3.2l7.6,4.5v-3.2L619.5,174.7z M614.7,177.5v3.2l18.9,11v-3.2L614.7,177.5z M626,172.8v3.2
			l7.6,4.5v-3.2L626,172.8z" />
    </g>
    <path class="st15" d="M631.6,170.5v3.2l3.2,1.8v-3.2L631.6,170.5z M637,184.8l-0.1,3.2l7.6,4.4v-3.2L637,184.8z M631.6,181.7v3.2
		l3.1,1.8v-3.2L631.6,181.7z M607.2,178.8v3.2l4,2.3v-3.2L607.2,178.8z M609.1,174.3v3.2l2.9,1.7V176L609.1,174.3z" />
    <path class="st1" d="M649.6,158.3v3.2l7.9,4.6V163L649.6,158.3z M649.6,152.7v3.2l7.9,4.7l0.1-3.2L649.6,152.7z M649.6,147.1v3.2
		l8,4.6v-3.2L649.6,147.1z M649.6,141.4v3.2l8,4.6V146L649.6,141.4z M619.7,129.6v3.2l14.2,8.3v-3.2L619.7,129.6z M626.1,127.7
		l-0.1,3.2l7.6,4.4v-3.2L626.1,127.7z M574.8,109.1v3.2l9.3,5.5v-3.2L574.8,109.1z M583.3,102.8v3.2l7,4.1v-3.2L583.3,102.8z
		 M606.4,121.8l-0.1,3.2l11.5,6.7l0.1-3.2L606.4,121.8z M562.6,107.6v3.2l6.9,4.1v-3.2L562.6,107.6z M544.4,108.3v3.2l13.1,7.6v-3.2
		L544.4,108.3z M554.9,97.5l-0.1,3.2l16.8,9.8v-3.2L554.9,97.5z M649.5,180.8v3.2l7.9,4.6l0.1-3.2L649.5,180.8z M649.5,175.2v3.2
		l8,4.7v-3.2L649.5,175.2z M649.5,169.6v3.2l8,4.7v-3.2L649.5,169.6z M649.6,164l-0.1,3.2l8,4.6v-3.2L649.6,164z M559.7,117.2v3.2
		l4.8,2.8V120L559.7,117.2L559.7,117.2z M649.5,186.5v3.2l7.9,4.6v-3.2L649.5,186.5z M649.4,203.4v3.2l8,4.6V208L649.4,203.4
		L649.4,203.4z M649.4,197.8v3.2l8,4.7v-3.2L649.4,197.8z M649.4,192.1v3.2l8,4.7v-3.2L649.4,192.1z M614.4,171.7v3.2l3.3,1.9v-3.2
		L614.4,171.7z M626,189.7v3.2l7.5,4.4l0.1-3.2L626,189.7z" />
  </g>
  <linearGradient id="SVGID_26_" gradientUnits="userSpaceOnUse" x1="-2700.8674" y1="1120.8801" x2="-2676.0493" y2="1206.3291"
    gradientTransform="matrix(-1 0 0 1 -1962.416 -922)">
    <stop offset="0" style="stop-color:#EE4BF7" />
    <stop offset="1" style="stop-color:#50C5FF" />
  </linearGradient>
  <path class="st35" d="M780.3,213.6v5.2L679,159.5l-0.2,81L780,299.9L780.3,213.6L780.3,213.6z" />
  <linearGradient id="SVGID_27_" gradientUnits="userSpaceOnUse" x1="-2742.7161" y1="1108.5" x2="-2641.416" y2="1108.5"
    gradientTransform="matrix(-1 0 0 1 -1962.416 -922)">
    <stop offset="0" style="stop-color:#35E4FC" />
    <stop offset="1" style="stop-color:#50C5FF" />
  </linearGradient>
  <path class="st36" d="M679,154.2v5.2l101.3,59.4v-5.2L679,154.2z" />
  <g class="st33">
    <path class="st1" d="M760.7,268.4v3.2l2.9,1.7v-3.2L760.7,268.4z M760.7,274v3.2l2.8,1.7l0.1-3.2L760.7,274L760.7,274z M756,226.5
		v3.2l2.8,1.7v-3.2L756,226.5z M756,232.1v3.1l2.9,1.7v-3.2L756,232.1z M756,237.7v3.2l2.9,1.7v-3.2L756,237.7z M756,243.3v3.2
		l2.8,1.7l0.1-3.2L756,243.3L756,243.3z M756,248.8v3.2l2.8,1.7v-3.2L756,248.8z M756,254.5v3.2l2.8,1.7v-3.2L756,254.5z
		 M755.9,260.1v3.2l2.9,1.6v-3.1L755.9,260.1z M755.9,265.6v3.2l2.9,1.7v-3.2L755.9,265.6z M755.9,271.2v3.2l2.8,1.7l0.1-3.2
		L755.9,271.2L755.9,271.2z M751.3,212.5v3.2l2.8,1.7l0.1-3.2L751.3,212.5L751.3,212.5z M751.3,218.1v3.2l2.8,1.7v-3.2L751.3,218.1z
		 M751.3,223.8v3.2l2.8,1.7v-3.2L751.3,223.8z M751.2,229.3v3.2l2.9,1.7V231L751.2,229.3L751.2,229.3z M751.2,234.9v3.2l2.9,1.7
		v-3.2L751.2,234.9z M751.2,240.5v3.2l2.8,1.6l0.1-3.2L751.2,240.5L751.2,240.5z M751.2,246.1v3.2l2.8,1.7v-3.2L751.2,246.1z
		 M751.2,251.7v3.2l2.8,1.7v-3.2L751.2,251.7z M751.1,257.2v3.2l2.9,1.7v-3.2L751.1,257.2z M751.1,262.8v3.2l2.9,1.7v-3.2
		L751.1,262.8z M751.1,268.5v3.2l2.8,1.7l0.1-3.2L751.1,268.5L751.1,268.5z M746.4,237.7v3.2l2.8,1.7l0.1-3.2L746.4,237.7
		L746.4,237.7z M746.4,243.3v3.2l2.8,1.7V245L746.4,243.3L746.4,243.3z M746.4,248.9v3.2l2.8,1.7v-3.2L746.4,248.9z M746.4,254.5
		v3.2l2.9,1.7v-3.2L746.4,254.5z M746.4,260.1v3.2l2.9,1.7v-3.2L746.4,260.1z M746.4,265.7v3.2l2.8,1.6l0.1-3.2L746.4,265.7
		L746.4,265.7z M741.6,257.3v3.2l2.9,1.7V259L741.6,257.3L741.6,257.3z M741.6,262.8v3.2l2.8,1.7v-3.2L741.6,262.8z M736.8,254.5
		v3.2l2.9,1.6v-3.2L736.8,254.5L736.8,254.5z M736.8,260.1v3.2l2.8,1.7v-3.2L736.8,260.1z M732.1,235v3.2l2.8,1.6v-3.2L732.1,235z
		 M732.1,240.5l-0.1,3.2l2.9,1.7v-3.2L732.1,240.5L732.1,240.5z M732,246.1v3.2l2.9,1.7v-3.2L732,246.1z M732,251.7v3.2l2.9,1.7
		v-3.2L732,251.7z M732,257.3v3.2l2.8,1.7V259L732,257.3L732,257.3z M727.4,215.5v3.2l2.9,1.6v-3.2L727.4,215.5z M727.4,221v3.2
		l2.9,1.7v-3.2L727.4,221z M727.4,226.6v3.2l2.8,1.7v-3.2L727.4,226.6z M727.4,232.1v3.2l2.8,1.7v-3.2L727.4,232.1z M727.4,237.8
		l-0.1,3.2l2.9,1.7v-3.2L727.4,237.8L727.4,237.8z M727.3,243.4v3.2l2.9,1.7v-3.2L727.3,243.4z M727.3,248.9v3.2l2.9,1.7v-3.2
		L727.3,248.9z M727.3,254.5v3.2l2.8,1.7v-3.2L727.3,254.5L727.3,254.5z M722.7,201.5v3.2l2.8,1.7v-3.2L722.7,201.5z M722.7,207.1
		l-0.1,3.2l2.9,1.7v-3.2L722.7,207.1L722.7,207.1z M722.6,212.6v3.2l2.9,1.7v-3.2L722.6,212.6z M722.6,218.2v3.2l2.9,1.7v-3.2
		L722.6,218.2z M722.6,223.8v3.2l2.8,1.6v-3.1L722.6,223.8z M722.6,229.4v3.2l2.8,1.7v-3.2L722.6,229.4z M722.6,235l-0.1,3.2
		l2.9,1.7v-3.2L722.6,235L722.6,235z M722.5,240.6v3.1l2.9,1.7v-3.2L722.5,240.6z M722.5,246.1v3.2l2.9,1.7v-3.2L722.5,246.1z
		 M722.5,251.8v3.2l2.8,1.7v-3.2L722.5,251.8L722.5,251.8z" />
    <path class="st34" d="M717.8,232.2l-0.1,3.2l2.9,1.7v-3.2L717.8,232.2L717.8,232.2z" />
    <path class="st1" d="M717.7,237.8v3.2l2.9,1.7v-3.2L717.7,237.8z M717.7,243.4v3.2l2.8,1.7l0.1-3.2L717.7,243.4L717.7,243.4z
		 M717.7,249v3.2l2.8,1.6v-3.2L717.7,249z M713,240.6v3.2l2.8,1.7l0.1-3.2L713,240.6L713,240.6z M713,246.1v3.2l2.8,1.7v-3.2
		L713,246.1z M708.3,226.6l-0.1,3.2l2.9,1.7v-3.2L708.3,226.6L708.3,226.6z M708.2,232.2v3.2l2.9,1.7v-3.2L708.2,232.2z
		 M708.2,237.8v3.2l2.8,1.7l0.1-3.2L708.2,237.8L708.2,237.8z M708.2,243.4v3.2l2.8,1.7v-3.2L708.2,243.4z M703.5,207.1v3.2l2.8,1.7
		l0.1-3.2L703.5,207.1L703.5,207.1z M703.5,212.7v3.2l2.8,1.7v-3.2L703.5,212.7z M703.5,218.3v3.2l2.8,1.6v-3.2L703.5,218.3z
		 M703.4,223.8v3.2l2.9,1.7v-3.2L703.4,223.8z M703.4,229.5v3.2l2.9,1.7v-3.2L703.4,229.5z M703.4,235.1v3.1l2.8,1.7l0.1-3.2
		L703.4,235.1L703.4,235.1z M703.4,240.6v3.2l2.8,1.7v-3.2L703.4,240.6z M698.8,182v3.2l2.8,1.7v-3.2L698.8,182z M698.8,187.5v3.2
		l2.8,1.7v-3.2L698.8,187.5z M698.7,193.1v3.2l2.9,1.7v-3.2L698.7,193.1z M698.7,198.8v3.2l2.9,1.6v-3.2L698.7,198.8z M698.7,204.3
		v3.2l2.8,1.7l0.1-3.2L698.7,204.3L698.7,204.3z M698.7,209.9v3.2l2.8,1.7v-3.2L698.7,209.9z M698.7,215.5v3.2l2.8,1.7v-3.2
		L698.7,215.5z M698.7,221.1v3.2l2.9,1.7v-3.2L698.7,221.1z M698.7,226.7v3.2l2.9,1.7v-3.2L698.7,226.7z M698.7,232.2v3.2l2.8,1.7
		l0.1-3.2L698.7,232.2L698.7,232.2z M698.7,237.8v3.2l2.8,1.7v-3.2L698.7,237.8z" />
    <path class="st15" d="M756,220.9v3.2l2.8,1.7v-3.2L756,220.9z M751.3,207v3.2l2.9,1.7v-3.2L751.3,207z M746.4,232.1v3.2l2.9,1.7
		v-3.2L746.4,232.1z M741.6,251.7v3.2l2.9,1.7v-3.2L741.6,251.7z M732.1,229.4v3.2l2.8,1.7l0.1-3.2L732.1,229.4L732.1,229.4z
		 M727.4,209.8l-0.1,3.2l2.9,1.7v-3.2L727.4,209.8L727.4,209.8z M722.7,195.9v3.1l2.8,1.7v-3.2L722.7,195.9z M717.8,226.6v3.2
		l2.8,1.7v-3.2L717.8,226.6z M708.3,221.1v3.2l2.8,1.7v-3.2L708.3,221.1z M703.5,201.5v3.2l2.9,1.7v-3.2L703.5,201.5z M698.8,176.4
		v3.2l2.8,1.7l0.1-3.2L698.8,176.4L698.8,176.4z M693.9,218.3v3.2l2.9,1.7V220L693.9,218.3L693.9,218.3z" />
    <path class="st1" d="M693.9,223.9v3.2l2.9,1.6v-3.2L693.9,223.9z M693.9,229.5v3.2l2.8,1.7l0.1-3.2L693.9,229.5L693.9,229.5z
		 M693.9,235.1v3.2l2.8,1.7v-3.2L693.9,235.1z" />
  </g>
  <path class="st15" d="M664.5,174.6c-0.7-0.4-1.3-0.1-1.3,0.8c0,0.8,0.5,1.8,1.3,2.2c0.7,0.4,1.3,0.1,1.3-0.8
	C665.7,176,665.2,175,664.5,174.6z M673.9,191.1c-0.7-0.4-1.3-0.1-1.3,0.8c0,0.8,0.5,1.8,1.3,2.2c0.7,0.4,1.3,0.1,1.3-0.8
	C675.2,192.5,674.6,191.5,673.9,191.1z M675.7,181.5c-0.2-0.5-0.5-0.9-0.8-1.3V170l-1.9-1.2V179c-0.6,0.1-1,0.5-1,1.4
	c0,1.3,0.9,2.8,2,3.5c0.8,0.5,1.5,0.3,1.8-0.2l8.2,4.8v-2.2L675.7,181.5z" />
  <path class="st15" d="M674,165.7c-7.5-4.4-13.8-0.8-13.8,7.9s6.1,19.5,13.7,23.9c7.5,4.4,13.8,0.8,13.8-7.9
	C687.7,180.8,681.6,170.1,674,165.7z M673.9,195.2c-6.5-3.8-11.8-13-11.8-20.5s5.3-10.6,11.8-6.8s11.8,13,11.8,20.5
	C685.7,196,680.4,199.1,673.9,195.2z M806.4,263.5L797,258v-8.2l-2.8-1.6l-0.1,20.5l2.8,1.7l0.1-9.2l9.5,5.5v9.2l2.8,1.7l0.1-20.6
	l-2.9-1.7L806.4,263.5L806.4,263.5z M823.3,265.2l-6.8-3.9l-1.1-0.6l-1.8-1.1l-0.1,20.6l2.8,1.7v-9.2l6.7,3.9
	c2.7,1.5,4.9,0.3,4.9-2.8C828.3,270.7,826,266.8,823.3,265.2L823.3,265.2z M823.3,273.4l-6.7-3.9v-4.8l6.7,3.9
	c1.2,0.7,2.1,2.3,2.1,3.6C825.3,273.5,824.4,274.1,823.3,273.4L823.3,273.4z M787.4,244.3l-6.8-3.9l-1.1-0.6l-1.8-1.1l-0.1,20.6
	l2.8,1.7v-9.2l6.7,3.9c2.7,1.5,4.9,0.3,4.9-2.8C792.3,249.7,790,245.9,787.4,244.3L787.4,244.3z M787.3,252.4l-6.7-3.9v-4.8l6.7,3.9
	c1.2,0.7,2.1,2.3,2.1,3.6S788.4,253.1,787.3,252.4z" />
  <path class="st1" d="M815.2,123.9l-5.8-3.4v3.3l5.8,3.4v17.1l2.8,1.7l0.1-17.2l5.8,3.4v-3.3l-5.8-3.4L815.2,123.9L815.2,123.9z
	 M851,144.8l-2.8-1.6l-0.1,20.3l0.5,0.2l2.4,1.4l8.3,4.8v-3.2l-8.3-4.8L851,144.8L851,144.8z M805.2,126.1l-9.5-5.5v-8.2l-2.8-1.7
	l-0.1,20.6l2.8,1.7l0.1-9.2l9.5,5.5v9.2l2.8,1.6l0.1-20.5l-2.8-1.7L805.2,126.1L805.2,126.1z M835,153.1l-6.2-21.4l-3.1-1.8
	l-0.1,20.6l2.8,1.7v-12.5l4.3,14.9l4.2,2.5l4.4-9.8v12.4l2.8,1.7l0.1-20.6L841,139L835,153.1L835,153.1z M782.9,292.4
	c-4.1-2.4-7.5-8.1-7.4-12.6c0-4.5,3.4-6.3,7.5-3.9c3.2,1.8,5.9,5.7,7,9.6l2.7,0.5c-1.5-5.4-5.3-10.7-9.7-13.2
	c-5.7-3.3-10.3-0.8-10.3,5.5s4.6,14.2,10.2,17.5c2.3,1.3,4.5,1.8,6.2,1.3c1.8-0.5,3.1-1.8,3.7-3.8l-2.7-2.5
	C789.1,293.6,786.1,294.3,782.9,292.4z M801.7,293.1c-3.9-2.7-3.9-4.5-3.9-5.2c0-1.5,1.8-1.8,3.8-0.6s3.8,3.5,3.8,5.1l2.7,1.5
	c0-1.6-0.8-3.6-2-5.5c-1.2-1.7-2.8-3.2-4.5-4.2s-3.2-1.3-4.5-1s-2.1,1.5-2.1,3.1c0,1.7,0.6,3.5,1.7,5.1c1.1,1.5,2.5,3,4.6,4.4
	c4.8,3.4,4.8,5.4,4.8,6.2c0,1.8-2,2.2-4.4,0.8c-2.4-1.4-4.4-4.2-4.4-5.9l-2.7-1.5c0,1.8,0.8,3.8,2.2,5.9c1.3,1.8,3,3.5,4.8,4.5
	c1.8,1.1,3.5,1.5,4.8,1.1c1.4-0.4,2.2-1.5,2.2-3.3s-0.6-3.7-1.9-5.5C805.8,296.4,804.1,294.8,801.7,293.1L801.7,293.1z M817.3,302.2
	c-3.9-2.7-3.9-4.5-3.9-5.2c0-1.5,1.8-1.8,3.8-0.6c2.1,1.2,3.8,3.5,3.8,5.1l2.7,1.5c0-1.6-0.8-3.6-2-5.5c-1.2-1.7-2.8-3.2-4.5-4.2
	s-3.2-1.3-4.5-1s-2.1,1.5-2.1,3.1c0,1.7,0.6,3.5,1.7,5.1c1.1,1.5,2.5,3,4.6,4.4c4.8,3.4,4.8,5.4,4.8,6.2c0,1.8-2,2.2-4.4,0.8
	c-2.4-1.4-4.4-4.2-4.4-5.9l-2.7-1.5c0,1.8,0.8,3.8,2.2,5.9c1.3,1.8,3,3.5,4.8,4.5c1.8,1.1,3.5,1.5,4.8,1.1c1.4-0.4,2.2-1.5,2.2-3.3
	s-0.6-3.7-1.9-5.5C821.3,305.4,819.6,303.8,817.3,302.2L817.3,302.2z M839.2,317l-0.9-1.2c0.1,0,0.2,0,0.2-0.1
	c1.2-0.3,1.8-1.4,1.8-3.1c0-1.6-0.8-3.5-2-5.4c-1.2-1.7-2.8-3.2-4.5-4.2s-3.3-1.4-4.5-1.1c-1.3,0.3-2.1,1.5-2.1,3l2.7,1.5
	c0-1.5,1.8-1.8,3.8-0.6c2.1,1.2,3.8,3.5,3.8,5.1c0,0.6,0,2.3-3.5,0.8l-2-1.2v3.1l1.6,1c4.8,3.4,4.8,5.3,4.8,6.2
	c0,1.8-2.1,2.2-4.5,0.8s-4.5-4.2-4.5-5.9l-2.7-1.5c0,1.8,0.8,3.8,2.2,5.8c1.3,1.8,3.1,3.5,4.9,4.5c1.8,1.1,3.6,1.5,4.9,1.2
	c1.5-0.4,2.2-1.5,2.2-3.3C841.2,320.7,840.5,318.8,839.2,317L839.2,317z" />
  <path class="st15" d="M795.4,147.4l-6.8-3.9l-1.1-0.6l-1.8-1l-0.1,20.6l2.8,1.7V155l6.7,3.9c2.7,1.5,4.9,0.3,4.9-2.8
	C800.4,152.8,798.1,149,795.4,147.4L795.4,147.4z M795.4,155.5l-6.7-3.9v-4.8l6.7,3.9c1.2,0.7,2.1,2.3,2.1,3.6
	C797.4,155.6,796.5,156.1,795.4,155.5z M776,141.8c0-3.2-2.2-7-4.8-8.6l-6.8-3.9l-1.1-0.6l-1.8-1.1l-0.1,20.6l2.8,1.7v-9.2l5,2.9
	l4,11.5l3.2,1.8l-4.2-11.8C774.5,145.7,776,144.3,776,141.8L776,141.8z M771,141.3l-6.7-3.9v-4.8l6.7,3.9c1.2,0.7,2.1,2.3,2.1,3.6
	S772.2,141.9,771,141.3z M705.7,95l-7.3,16.4l3.1,1.8l1.2-2.8l10.1,5.9l1.2,4.2l3.1,1.8l-7.2-24.8L705.7,95L705.7,95z M703.8,107.8
	l3.9-8.8l3.8,13.3L703.8,107.8z M672.3,75.5L665,91.9l3.1,1.8l1.2-2.8l10.1,5.9l1.2,4.2l3.1,1.8L676.4,78L672.3,75.5z M670.5,88.3
	l3.9-8.8l3.8,13.3L670.5,88.3z M698.3,90.8l-6.2,14l-6.2-21.3l-3.1-1.8l7.1,24.6l4.2,2.5l7.2-16.2L698.3,90.8L698.3,90.8z
	 M778.7,158.2l2.8,1.7l0.1-20.6l-2.8-1.7L778.7,158.2z M809.9,155.8l-2.8-1.6l-5.8-3.5v3.4l5.8,3.4l-0.1,17.3l2.9,1.6v-17.2l5.8,3.4
	v-3.3L809.9,155.8L809.9,155.8z M731.6,118.4l-0.2-0.1c-3.7-2.5-3.7-4.2-3.7-4.8c0-1.5,1.6-1.7,3.5-0.5s3.5,3.3,3.5,4.7v0.2l2.8,1.7
	v-0.2c0-1.6-0.7-3.6-2-5.5c-1.2-1.7-2.8-3.2-4.4-4.2c-1.6-0.9-3.2-1.3-4.4-1c-1.3,0.3-2,1.5-2.1,3.1c0,1.7,0.6,3.5,1.7,5.1
	c1,1.5,2.5,2.9,4.4,4.2l0.2,0.1c4.5,3.2,4.5,5,4.5,5.8c0,1.7-1.9,2-4.2,0.7s-4.2-3.8-4.1-5.5V122l-2.8-1.7v0.2
	c0,1.8,0.8,3.8,2.2,5.8c1.3,1.8,3,3.5,4.8,4.5c1.8,1.1,3.5,1.5,4.8,1.1c1.4-0.4,2.2-1.5,2.2-3.3s-0.6-3.7-1.9-5.5
	C735.4,121.5,733.8,120,731.6,118.4z M750,139.1c-3.9-2.3-7.1-7.7-7.1-12c0-4.4,3.2-6.1,7.2-3.8c3,1.8,5.7,5.5,6.7,9.2l2.5,0.5
	c-1.4-5.2-5.1-10.2-9.2-12.6c-5.4-3.2-9.8-0.8-9.8,5.2c0,6,4.4,13.5,9.8,16.6c2.2,1.2,4.2,1.7,5.9,1.2s2.9-1.7,3.5-3.6l-2.6-2.4
	C756,140.2,753.2,140.9,750,139.1L750,139.1z M661.3,83.2c0,1.8-1.9,2.2-4.2,0.9c-2.2-1.3-4.2-3.9-4.1-5.7v-0.3l-2.8-1.7V77
	c0.1,1.8,0.8,3.9,2.2,6c1.3,1.9,3,3.5,4.8,4.6s3.5,1.4,4.8,1c1.4-0.5,2.2-1.6,2.2-3.4l0.1-14.3l-2.8-1.7L661.3,83.2z" />
  <g class="st37">
    <path class="st34" d="M761.8,62.2v3.4l8.5,5v-3.4C770.3,67.2,761.8,62.2,761.8,62.2z" />
    <path class="st15" d="M761.8,56.2v3.4l8.5,5l0.1-3.4C770.4,61.2,761.8,56.2,761.8,56.2z M761.8,50.2v3.4l8.5,4.9v-3.4L761.8,50.2z" />
    <path class="st34" d="M761.8,44.2v3.5l8.5,4.9v-3.4L761.8,44.2z" />
    <path class="st15" d="M761.7,68.3v3.4l8.5,4.9v-3.4L761.7,68.3z M761.7,74.3v3.4l8.5,5v-3.5L761.7,74.3z M761.7,80.3v3.4l8.5,5
		v-3.4L761.7,80.3z M761.7,110.5v3.4l8.5,4.9l0.1-3.4L761.7,110.5z M761.7,104.4v3.5l8.5,4.9v-3.4L761.7,104.4z M761.7,98.4v3.4
		l8.5,5v-3.4L761.7,98.4z M761.7,92.4l-0.1,3.4l8.5,5v-3.5L761.7,92.4z" />
    <path class="st34" d="M761.7,86.4v3.4l8.5,4.9v-3.4L761.7,86.4z" />
    <path class="st15" d="M751,43.9v3.4l8.5,5v-3.5L751,43.9z M751,49.9l-0.1,3.4l8.5,5v-3.4L751,49.9z M751,62v3.4l8.5,5v-3.5L751,62z
		" />
    <path class="st34" d="M751,55.9v3.5l8.5,4.9v-3.4L751,55.9z" />
    <path class="st15" d="M750.9,98.1v3.4l8.5,4.9V103L750.9,98.1z" />
    <path class="st34" d="M750.9,92.1v3.4l8.5,5v-3.4L750.9,92.1z M750.9,86.1v3.4l8.5,5v-3.4L750.9,86.1z" />
    <path class="st15" d="M751,37.9v3.4l8.5,4.9v-3.4L751,37.9z M751,68v3.4l8.5,5l0.1-3.4L751,68z M751,74l-0.1,3.5l8.5,4.9V79L751,74
		z M750.9,80.1v3.4l8.5,4.9V85L750.9,80.1z M750.9,104.1l-0.1,3.4l8.5,5V109L750.9,104.1z" />
  </g>
  <g class="st37">
    <path class="st34" d="M473.4,326.5v3.8l9.5,5.5V332L473.4,326.5z" />
    <path class="st15" d="M473.4,319.8v3.8l9.5,5.6v-3.8L473.4,319.8z M473.4,313l-0.1,3.8l9.5,5.5v-3.8L473.4,313z" />
    <path class="st34" d="M473.4,306.3v3.8l9.5,5.6l0.1-3.8L473.4,306.3z" />
    <path class="st15" d="M473.4,333.2v3.8l9.5,5.6l0.1-3.8L473.4,333.2z M473.4,340l-0.1,3.8l9.5,5.5v-3.8L473.4,340z M473.3,346.7
		v3.8l9.5,5.5v-3.8L473.3,346.7z M473.2,380.4v3.8l9.5,5.5v-3.8L473.2,380.4z M473.2,373.6v3.8l9.5,5.5v-3.8L473.2,373.6z
		 M473.3,366.9l-0.1,3.8l9.5,5.5v-3.8L473.3,366.9z M473.3,360.1v3.8l9.5,5.5l0.1-3.8L473.3,360.1z" />
    <path class="st34" d="M473.3,353.4v3.8l9.5,5.5V359L473.3,353.4z" />
    <path class="st15" d="M461.4,306v3.8l9.5,5.6v-3.8L461.4,306z M461.3,312.7v3.8l9.5,5.5v-3.8L461.3,312.7z M461.3,326.2v3.8
		l9.5,5.5v-3.8L461.3,326.2z" />
    <path class="st34" d="M461.3,319.4v3.8l9.5,5.6V325L461.3,319.4z" />
    <path class="st15" d="M461.1,366.6v3.8l9.5,5.5v-3.8L461.1,366.6z" />
    <path class="st34" d="M461.2,359.8v3.8l9.5,5.5v-3.8L461.2,359.8z M461.2,353.1v3.8l9.5,5.5v-3.8L461.2,353.1z" />
    <path class="st15" d="M461.4,299.2v3.8l9.5,5.5v-3.8L461.4,299.2z M461.3,332.9v3.8l9.5,5.6v-3.8L461.3,332.9z M461.2,339.7v3.8
		l9.5,5.5v-3.8L461.2,339.7z M461.2,346.4v3.8l9.5,5.5v-3.8L461.2,346.4z M461.1,373.3v3.8l9.5,5.5v-3.8L461.1,373.3z" />
  </g>
  <path class="st1" d="M825.8,223.3c-0.4-5.4-4.2-11.5-8.6-14.2c-3.5-2.1-6.7-1.5-8.1,1.5c-0.8-0.8-1.6-1.6-2.5-2.1
	c-3.3-1.9-6-0.4-6,3.5v0.2c-3.4-1.4-6,0.5-6,4.7c0,4.5,3.2,10.2,7.1,12.5l23.8,13.8c4.8,2.8,8.6,0.5,8.6-4.9
	C834.1,232.7,830.4,226.1,825.8,223.3z M825.4,240.6l-23.8-13.8c-2.8-1.6-5.1-5.5-5-8.8c0-3.2,2.3-4.5,5.1-2.9
	c0.3,0.2,0.6,0.2,0.8,0s0.3-0.5,0.2-0.9s-0.1-0.8-0.1-1.1c0-2.5,1.8-3.5,3.9-2.2c0.9,0.5,1.8,1.4,2.5,2.4c0.2,0.3,0.4,0.5,0.6,0.6
	c0.1,0.1,0.2,0.1,0.3,0.2c0.3,0.1,0.6-0.1,0.7-0.5c0.8-3,3.4-3.8,6.5-2.1c3.7,2.2,6.6,7.3,6.6,11.5v0.2c0,0.3,0.1,0.8,0.3,1.1
	s0.5,0.6,0.7,0.8c0,0,0.1,0,0.1,0.1l0.6,0.3c3.6,2.1,6.5,7.2,6.5,11.4C832,241.1,829,242.7,825.4,240.6L825.4,240.6z M720.4,58.8
	l-6.9,1.3l6.8,9.3l0.7-0.8l-5.5-7.4l5.5-1C721,60.2,720.4,58.8,720.4,58.8z M731.9,65.5l-0.6,0.8l5.5,7.4l-5.5,1l0.6,1.5l6.9-1.3
	L731.9,65.5z M724,74.3l1.2,0.9l3.2-14.5l-1.2-0.9L724,74.3z M841.3,181.6l0.6,1.5l-5.5,1l5.5,7.4l-0.6,0.8l-6.9-9.4L841.3,181.6z
	 M852.8,188.4l6.8,9.3l-6.9,1.3l-0.6-1.5l5.5-1.1l-5.5-7.4L852.8,188.4z M843.1,186.5c0.7,0.4,1.2,1.3,1.2,2.1s-0.5,1.1-1.2,0.7
	c-0.6-0.4-1.2-1.3-1.2-2.1C842,186.4,842.5,186.1,843.1,186.5z M847,188.7c0.7,0.4,1.2,1.3,1.2,2.1s-0.5,1.1-1.2,0.7
	c-0.7-0.4-1.2-1.3-1.2-2.1S846.3,188.3,847,188.7z" />
  <path class="st1" d="M850.9,191c0.7,0.4,1.2,1.3,1.2,2.1s-0.5,1.1-1.2,0.7c-0.7-0.4-1.2-1.3-1.2-2.1S850.3,190.6,850.9,191z" />
  <path class="st15" d="M516.4,84.2c-6.4-3.7-11.5-0.7-11.5,6.6c0,2.9,0.8,6.3,2.6,10c2.2,4.7,8.2,17.3,8.2,17.4l0.7,1.4l0.7-0.6
	c0.1-0.1,6.1-5.7,8.2-7.8c1.8-1.7,2.6-4,2.6-6.9C527.9,96.9,522.7,87.9,516.4,84.2z M516.4,107.8c-4.8-2.8-8.8-9.8-8.8-15.4
	c0-5.7,4-7.9,8.8-5.1s8.8,9.8,8.8,15.4C525.1,108.4,521.2,110.7,516.4,107.8z M889.8,307.8l-1.3-1.8c-1.4-0.3-2.8-0.8-4.2-1.7
	c-2.5-1.5-5.2-4.3-8.1-8.4l-1.2-0.7c-2.8,0.8-5.5,0.4-8.1-1.1c-1.4-0.8-2.8-1.8-4.2-3.2l-1.3,0.3c0,0.8-0.1,1.5-0.1,2.3
	c-0.1,24.2,8.6,35.5,13.8,40l0.5,0.3c5.2,1.5,13.9,0.5,14-23.8C889.9,309.4,889.9,308.5,889.8,307.8L889.8,307.8z M875.7,331.5
	c-7.8-7.1-12.2-20.1-12.1-36.7V294c1.2,1,2.3,1.8,3.5,2.5c2.8,1.6,5.7,2.1,8.7,1.5c3,4.2,5.9,7,8.7,8.6c1.2,0.7,2.4,1.2,3.5,1.6v0.8
	C887.9,325.6,883.5,333.6,875.7,331.5L875.7,331.5z" />
  <path class="st1" d="M447.8,214.1c-7.8,0-15-1.8-20.5-5s-8.5-7.5-8.5-12.2s3.1-9,8.7-12.2c5.5-3.2,12.8-5,20.5-5s15,1.8,20.5,5
	s8.5,7.5,8.5,12.2c0,4.6-3.1,9-8.7,12.2C462.9,212.4,455.6,214.1,447.8,214.1z M448.1,180.5c-7.6,0-14.8,1.7-20.2,4.8
	c-5.3,3.1-8.2,7.2-8.3,11.5c0,4.3,2.8,8.4,8.2,11.5c5.3,3.2,12.5,4.8,20.1,4.8s14.8-1.7,20.2-4.8c5.3-3.1,8.2-7.2,8.3-11.5
	c0-4.3-2.9-8.4-8.2-11.5C462.7,182.3,455.7,180.5,448.1,180.5z" />
  <path class="st1" d="M471.7,209c0,2-1.6,3.6-3.6,3.6s-3.6-1.6-3.6-3.6s1.6-3.6,3.6-3.6S471.7,207,471.7,209z" />
  <path class="st2" d="M470.4,208.2c0,0.5-0.4,0.8-0.8,0.8c-0.5,0-0.8-0.4-0.8-0.8c0-0.5,0.4-0.8,0.8-0.8
	C470.1,207.4,470.4,207.8,470.4,208.2z" />
  <path class="st1" d="M519.2,126.2c0,2-1.6,3.6-3.6,3.6s-3.6-1.6-3.6-3.6s1.6-3.6,3.6-3.6S519.2,124.2,519.2,126.2z" />
  <path class="st2" d="M517.9,125.5c0,0.5-0.4,0.8-0.8,0.8s-0.8-0.4-0.8-0.8c0-0.5,0.4-0.8,0.8-0.8S517.9,125,517.9,125.5z" />
  <path class="st1" d="M539.7,138c0,2-1.6,3.6-3.6,3.6s-3.6-1.6-3.6-3.6s1.6-3.6,3.6-3.6S539.7,136,539.7,138z" />
  <path class="st2" d="M538.4,137.2c0,0.5-0.4,0.8-0.8,0.8c-0.5,0-0.8-0.4-0.8-0.8c0-0.5,0.4-0.8,0.8-0.8
	C538.1,136.4,538.4,136.8,538.4,137.2z" />
  <path class="st1" d="M485.4,227.5c0,2-1.6,3.6-3.6,3.6s-3.6-1.6-3.6-3.6s1.6-3.6,3.6-3.6S485.4,225.5,485.4,227.5z" />
  <path class="st2" d="M484.1,226.8c0,0.5-0.4,0.8-0.8,0.8c-0.5,0-0.8-0.4-0.8-0.8c0-0.5,0.4-0.8,0.8-0.8
	C483.7,225.9,484.1,226.3,484.1,226.8z" />
  <path class="st1" d="M549.3,226c0,2-1.6,3.6-3.6,3.6s-3.6-1.6-3.6-3.6s1.6-3.6,3.6-3.6S549.3,224,549.3,226z" />
  <ellipse class="st2" cx="547.1" cy="225.2" rx="0.8" ry="0.8" />
  <path class="st1" d="M475.9,233.1c0,2-1.6,3.6-3.6,3.6s-3.6-1.6-3.6-3.6s1.6-3.6,3.6-3.6S475.9,231.1,475.9,233.1z" />
  <path class="st2" d="M474.6,232.3c0,0.5-0.4,0.8-0.8,0.8c-0.5,0-0.8-0.4-0.8-0.8c0-0.5,0.4-0.8,0.8-0.8S474.6,231.8,474.6,232.3z" />
  <path class="st1" d="M823,399.5c0,2-1.6,3.6-3.6,3.6s-3.6-1.6-3.6-3.6s1.6-3.6,3.6-3.6S823,397.5,823,399.5z" />
  <path class="st2" d="M821.7,398.8c0,0.5-0.4,0.8-0.8,0.8s-0.8-0.4-0.8-0.8c0-0.5,0.4-0.8,0.8-0.8S821.7,398.3,821.7,398.8z" />
  <path class="st1" d="M784.6,232.3c0,2-1.6,3.6-3.6,3.6s-3.6-1.6-3.6-3.6s1.6-3.6,3.6-3.6S784.6,230.3,784.6,232.3z" />
  <path class="st2" d="M783.3,231.5c0,0.5-0.4,0.8-0.8,0.8c-0.5,0-0.8-0.4-0.8-0.8c0-0.5,0.4-0.8,0.8-0.8
	C782.9,230.8,783.3,231.1,783.3,231.5z" />
  <path class="st1" d="M880.5,287.8c0,2-1.6,3.6-3.6,3.6s-3.6-1.6-3.6-3.6s1.6-3.6,3.6-3.6S880.5,285.8,880.5,287.8z" />
  <path class="st2" d="M879.2,287c0,0.5-0.4,0.8-0.8,0.8s-0.8-0.4-0.8-0.8c0-0.5,0.4-0.8,0.8-0.8S879.2,286.5,879.2,287z" />
  <g class="st38">
    <path class="st34" d="M583.5,393.3v1.9l16.4,9.5v-1.8L583.5,393.3z" />
    <path class="st15" d="M589.1,377.6v1.8l27.5,16.2v-1.8L589.1,377.6z M535.7,346.4v1.8l8.2,4.8v-1.8L535.7,346.4z M488.1,350.1v1.8
		l19.8,11.6v-1.8L488.1,350.1z" />
    <g class="st4">
      <path class="st34" d="M488.5,363.4v1.8l35.7,20.9v-1.8L488.5,363.4z M512.1,370.9v1.9l8.2,4.8v-1.8L512.1,370.9z M503.8,378.4v1.8
			l27.5,16.2v-1.8L503.8,378.4z" />
      <path class="st15" d="M526.7,385.8v1.8l9.3,5.5v-1.9L526.7,385.8z" />
      <path class="st34" d="M512.2,364.3l-0.1,1.8l30.3,17.8v-1.8L512.2,364.3z" />
      <path class="st15" d="M524.4,378.1v1.8l27.6,16.2v-1.8L524.4,378.1z M535.3,371.1v1.8l27.6,16.2v-1.8L535.3,371.1z" />
      <path class="st34" d="M538.4,366.9v1.8l19.3,11.3v-1.8L538.4,366.9z" />
    </g>
    <path class="st34" d="M523.7,364.3v1.8l9.4,5.5v-1.8L523.7,364.3z" />
    <path class="st15" d="M526.8,360.1l-0.1,1.9l9.4,5.5v-1.8L526.8,360.1L526.8,360.1z M524.5,352.4v1.8l27.6,16.2v-1.8L524.5,352.4z
		 M548.7,354v1.8l16.4,9.6v-1.8L548.7,354z M586.5,388.7v1.8l16.4,9.6v-1.8L586.5,388.7z M568.5,416.3v1.8l8.2,4.8l0.1-1.8
		L568.5,416.3z" />
    <g class="st4">
      <path class="st34" d="M570.4,411.4v1.8l17.8,10.5v-1.8L570.4,411.4z M591.9,424v1.9l16.4,9.5v-1.8L591.9,424z" />
      <path class="st15" d="M586.4,414.4v1.8l16.4,9.6V424L586.4,414.4z" />
      <path class="st34" d="M579.9,423v1.8l39.5,23.2v-1.8L579.9,423z M591.2,410.6v1.8l16.5,9.6v-1.8L591.2,410.6z" />
      <path class="st15" d="M580,397.2v1.8l27.5,16.2v-1.8L580,397.2z" />
    </g>
    <path class="st34" d="M607.4,426.7v1.9l8.2,4.8v-1.8L607.4,426.7z M611,415.4v1.8l16.6,9.8v-1.8L611,415.4z M607.4,401v1.8l8.2,4.8
		v-1.8L607.4,401z" />
    <path class="st15" d="M603.1,404.8v1.8l27.5,16.2v-1.9L603.1,404.8z M599.5,389.7v1.8l27.5,16.2v-1.9L599.5,389.7z M488.4,324.5
		v1.9l19.5,11.4V336L488.4,324.5z M492.3,345.8v1.9l27.5,16.1V362L492.3,345.8z" />
    <path class="st34" d="M512.2,345.2v1.8l8.2,4.8V350L512.2,345.2z" />
    <path class="st15" d="M512.2,338.5v1.8l8.2,4.8v-1.8L512.2,338.5z" />
    <path class="st34" d="M569,365.8v1.9l16.4,9.5v-1.8L569,365.8z M565.5,376.4v1.9l16.5,9.5V386L565.5,376.4z" />
    <path class="st15" d="M574,387.7v1.9l5.9,3.5v-1.8L574,387.7z M611.4,435.5v1.8l27.6,16.2v-1.9L611.4,435.5z M611.5,422.4v1.9
		l27.5,16.1v-1.8L611.5,422.4z M568,397v1.8l7.5,4.4v-1.8L568,397z M535.2,396.8v1.8l27.6,16.2V413L535.2,396.8z" />
    <path class="st34" d="M579.4,377.9v1.8l16.4,9.6l0.1-1.8L579.4,377.9z M516.1,353.8v1.8l8.2,4.8v-1.9L516.1,353.8L516.1,353.8z
		 M523.2,345v1.8l16.4,9.6v-1.9L523.2,345z M631,408.1v1.8l8.2,4.8v-1.9L631,408.1L631,408.1z" />
  </g>
  <path class="st15" d="M467.4,194.8l-15.4-8.9c-3.1-1.8-8.1-1.8-11.2,0l-8.3,4.9c-3.1,1.8-3.1,4.8,0,6.5l0.9,0.5l-8.6,2.8l12.6-0.4
	l10.5,6.1c3.1,1.8,8.1,1.8,11.2,0l8.3-4.9C470.6,199.6,470.5,196.7,467.4,194.8L467.4,194.8z" />
  <path class="st39" d="M454.5,202.3l-1.9,1.2l-15.1-8.8l1.9-1.2L454.5,202.3z M458.7,199.8l-1.9,1.1l-15.1-8.8l1.9-1.1L458.7,199.8z
	 M463,197.3l-1.9,1.2l-15-8.8l1.9-1.2L463,197.3z" />
  <path id="search" class="st15" d="M855,404.5c0-1.8-1.3-3.5-3.4-4.8s-4.9-2-8.1-2c-6.3,0-11.5,3-11.4,6.8c0,1.8,1.3,3.5,3.4,4.8
	c1.8,1.1,4.3,1.8,7,1.9v1.6h-1.3l0.1,7.7h4.7l-0.1-7.7h-1.3v-1.6C850.6,410.9,855.1,408.1,855,404.5L855,404.5z M843.7,410.4
	c-2.7,0-5.2-0.6-6.9-1.7c-1.8-1.1-2.9-2.5-2.9-4.1c0-3.2,4.4-5.8,9.8-5.8c2.7,0,5.2,0.6,6.9,1.7c1.8,1.1,2.9,2.5,2.9,4.1
  C853.5,407.8,849.1,410.4,843.7,410.4z" />

  <script xlink:href="TweenMax.min-2.0.2.js" />

  <script>
    // <![CDATA[
    let time = {
      delay: 0,
      repeat: -1,
      repeatDelay: 0,
      yoyo: true
    }
    let tl = new TimelineMax(time);
    tl.staggerFrom('#search', 3, {
      opacity: 1,
      scale: 1,
      y: -20,
      ease: Power1.easeInOut
    }, 1)
    // ]]>
  </script>


</svg>